<?xml version="1.0" encoding="UTF-8"?>
<svg id="_レイヤー_2" data-name="レイヤー 2" xmlns="http://www.w3.org/2000/svg" xmlns:xlink="http://www.w3.org/1999/xlink" viewBox="0 0 373.92 142.71">
  <defs>
    <style>
      .cls-1 {
        fill: none;
      }

      .cls-2 {
        clip-path: url(#clippath);
      }
    </style>
    <clipPath id="clippath">
      <rect class="cls-1" width="373.92" height="131.6"/>
    </clipPath>
  </defs>
  <g id="_レイヤー_1-2" data-name="レイヤー 1">
    <g class="cls-2">
      <g id="_レイヤー_2-2" data-name=" レイヤー 2">
        <g>
          <path d="M105.38,103.2c-4.83-3.39-10.7-4.88-16.04-4.68-5.4.23-7.82,4.25-7.82,4.25-2.44-4.25-7.25-6.86-14.69-6.8-12.01.14-23.92,5.7-33.37,5.7s-15.67-5.7-15.45-15.81c.38-17.71,15.36-33.69,26.54-40.87,6.44-4.14,11.83-5.36,15.35-4.97,2.57.29,5.66,3.25,3.71,7.63-2.86,6.41-6.82,5.88-6.67,2.81.07-1.98,1.4-3.24,2.4-3.92.63-.44,1.75-.56,2.34-.58.55-.48.99-3.98-3.62-2.82-4.61,1.15-10.16,5.67-15.45,11.52-5.28,5.84-13.51,16.9-15.54,28.51-.95,5.38-.31,15.18,12.43,15.08,10.81-.09,26.76-7.22,41.41-7.09,5.69.05,10.64,1.58,14.5,3.97,3.81,2.34,8.35,5.74,9.97,8.07M108.83,71.06h2.22s-11.1,16.05-17.37,15.32c-3.52-.4-2.49-4.73-2.49-4.73,0,0-4.92,5.77-9.42,4.62-4.09-1.05-1.45-7.87-1.45-7.87-.47.18-9.34,10.19-15.56,7.79-6.51-2.52-3.14-10.88-1.9-13.4,1.05-2.12,2.21-4.2,2.21-4.2,0,0-1,.29-1.62.43s-1.57.33-1.57.33c0,0-3.08,5.01-4.96,7.52-1.88,2.5-9.89,11.11-14.61,9.39s-3.56-8.32-.91-13.56c4.3-8.52,14.5-18.97,20.63-17.41,6.21,1.59,1.08,11.66,1.08,11.66,0,0,1.24.16,4.19-1.86,4.26-2.91,9.88-10.73,15.97-9.82,2.86.43,5.53,3.36,1.89,8.94-1.17,1.78-3.12,3.39-4.63,1.81-.92-.98-.11-2.77.87-4.01,1.38-1.74,3.28-1.5,3.28-1.5,0,0,1.01-2.31-1.54-2.27-2.08.05-7.31,4.87-10.28,9.76-2.72,4.48-6.82,12.11-2.69,13.77,3.78,1.53,10.98-7.03,14.32-11.5,3.33-4.49,10.93-14.66,17.31-15.08,2.18-.14,3.5,1.87,3.5,1.87l.74-1.17h6.37s-12,20.06-12.94,21.58c-.74,1.19-1.72,3.86,1,2.36,2.72-1.51,8.37-8.78,8.37-8.78M59.4,69.03c-.1-.03-1.72-.49-3.28-1.49-1.56-1.01-2.28-2.49-2.34-2.6-.07-.1-.12-.02-.18.06-.07.08-.41.52-2.67,3.85-2.27,3.34-5.64,10.17-2.48,11.34,2.02.75,5.41-2.8,7.24-5.15,1.7-2.18,3.73-5.53,3.82-5.72.08-.2,0-.25-.1-.3M61.92,58.37c-1.67-1.27-5.92,1.7-5.94,4.71-.03,3.1,3.85,3.98,4.33,4,0,0,.43.12.61-.25.11-.23.63-1.2,1.22-2.73.58-1.54,1.33-4.55-.22-5.73M94.39,75.07c2.57-3.52,9.67-15.89,9.67-15.89,0,0-.13-.87-.96-.91-.98-.04-2.61.29-5.87,4.36s-5.78,7.33-7.61,10.7c-2.02,3.68-2.9,6.28-1.74,6.98.31.2.82.22,1.21.13.76-.18,1.75-.94,3.1-2.51.63-.73,1.36-1.71,2.2-2.86M123.03,55.92h-6.05l-3.42,5.54h6.05s3.42-5.54,3.42-5.54ZM212.33,45.99c-4.47,2.87-10.66,5.48-16.62,4.92-1.5,1.56-3.11,3.35-4.74,5.33,10.34,2.03,19.37-4.36,24.18-9.81,2.99-3.4,4.47-6.44,4.47-6.44,0,0-2.86,3.16-7.29,6.01M194.63,92.92c-.85,1.36-1.82,4,1.01,2.35,3.43-2,8.34-9.44,8.34-9.44h2.22s-2.92,4.63-6.73,8.85c-3.5,3.87-7.76,7.38-10.76,7.04-3.51-.42-2.41-5.02-2.41-5.02,0,0-5.03,5.34-8.49,4.97-4.67-.53-3.25-6.32-3.25-6.32,0,0-5.29,6.52-8.9,6.32-5.65-.34-4.24-7.25-2.67-12.07.84-2.59,1.63-4.63,1.63-4.63,0,0-.57.15-1.78.32-.62.09-1.77.16-1.77.16,0,0-2.35,4.16-4.23,6.67-1.89,2.51-9.89,11.12-14.61,9.38-4.36-1.58-2.92-8.27-.39-13.56,3.71-7.73,14.12-18.85,20.12-17.39,6.22,1.51.14,12.88.14,12.88,0,0,0,.04.06.06.13.06.45.09,1.2-.06,1.19-.23,2.28-.68,2.28-.68,0,0,6.25-13.11,13.17-21.69,6.91-8.58,20.71-23.36,26.12-19.79,1.33.87.73,3.9-1.05,7.58-.79.25-1.61.47-2.45.64,1.2-2.16,1.99-3.99,2.22-5.27.81-4.43-9.54,4.91-16.93,14.97-7.38,10.06-11.82,19.17-11.82,19.17,0,0,1.5-.85,3.82-2.72,2.43-1.95,5.76-5.02,9.38-8.77,2.45-2.52,5.31-5.69,8-9.23.79-.04,1.58-.12,2.35-.24-2.99,4.03-6.14,7.72-8.81,10.42-2.94,2.98-6.13,6.2-8.92,8.53-4.41,3.71-7.82,5.82-7.82,5.82,0,0-6.47,13.03-2.96,13.87,2.07.49,6.15-5.8,6.15-5.8,0,0,5.32-8.13,8.54-11.79,4.37-4.98,8.15-7.87,11.92-7.92,2.2-.05,3.49,2.3,3.49,2.3l1.03-1.6h6.38s-11.86,20.16-12.82,21.68M158.86,84.97c-.12-.04-1.5-.67-2.93-1.86-1.43-1.19-2.15-2.56-2.21-2.67-.06-.1-.12-.02-.19.06-.06.08-.32.31-2.59,3.65-2.27,3.33-5.76,10.23-2.6,11.39,2.02.74,5.39-2.79,7.22-5.14,1.7-2.18,3.3-4.95,3.39-5.16.09-.19,0-.24-.1-.29M162.06,79.34c.59-1.53,1.33-4.55-.23-5.72-1.66-1.27-5.92,1.69-5.94,4.71-.02,3.09,3,4.49,3.73,4.68.42.12.55.1.76-.23.12-.22,1.1-1.9,1.68-3.44M198.6,75.09c.14-.23.18-.43.18-.43,0,0-.1-.87-.94-.91-.98-.04-2.32.15-5.83,4.04-3.5,3.88-5.63,7.24-7.48,10.62-2.01,3.67-2.83,6.41-1.66,7.12.32.2.82.22,1.22.12.78-.2,1.66-.93,3.02-2.49.64-.73,1.33-1.77,2.17-2.92,2.32-3.16,8.16-13.14,9.31-15.15M212.33,45.99c-4.47,2.87-10.66,5.48-16.62,4.92-1.5,1.56-3.11,3.35-4.74,5.33,10.34,2.03,19.37-4.36,24.18-9.81,2.99-3.4,4.47-6.44,4.47-6.44,0,0-2.86,3.16-7.29,6.01M183.32,53.48c-4.89-2.49-8.46-5.55-12.18-7.47-3.55-1.82-5.83-2.57-8.7-2.19-.48.06-1.18.3-1.18.3,0,0,1.49,5.03-4.4,13.5-5.94,8.58-11.33,8.54-12.86,6.16-1.61-2.49.46-7.56,3.92-12.08,3.63-4.72,10-8.64,10-8.64,0,0-2.02-1.24-7.01,1.59-4.86,2.76-13.26,9.31-21.02,20.38-7.75,11.05-9.31,17.14-10.41,21.94-1.12,4.78-.09,9.92,5.21,9.92s11.49-8.11,13.23-10.93c3.24-5.25,5.35-13.3.95-12.19-2.18.55-3.95,2.97-5.04,5.27-1.15,2.38-1.6,4.66-1.6,4.66,0,0-1.84.66-4.31,2.5-2.47,1.85-4.08,3.61-4.08,3.61,0,0,.02-3.83,3.08-10.03,3.04-6.2,8.64-9.03,11.82-9.3,2.87-.24,6.58,2.19,3.44,11.16-3.14,8.96-12.45,19.82-22.21,19.98-9.03.12-14.93-11.39-2.38-31.47,13.87-22.22,30.17-29.03,35.46-29.8,5.29-.76,7.01,1.57,7.01,1.57,0,0,4.43-2.05,10.05-1.67,6.48.44,11.48,5.01,18.06,8.22-1.73,1.67-3.36,3.39-4.83,4.99M159.25,44.77s-3.77,1.51-8.17,6.36c-4.42,4.86-6.95,10.3-5.06,11.73.73.56,2.4.65,5.45-2.1,2.38-2.13,4.81-4.93,6.44-8.94,1.97-4.8,1.34-7,1.34-7.06"/>
          <g>
            <path d="M267.4,89.97l-6.22,5.91v6.91h-3.45v-24.87h3.45v13.75l14.54-13.75h4.35l-10.22,9.71,10.88,15.16h-4.21l-9.12-12.81h0Z"/>
            <path d="M286.65,101.92c-1.53-.87-2.73-2.06-3.59-3.56s-1.3-3.17-1.3-5.01.43-3.51,1.3-5.01c.86-1.5,2.06-2.68,3.59-3.54s3.28-1.3,5.23-1.3,3.7.43,5.23,1.3,2.73,2.04,3.59,3.54,1.3,3.17,1.3,5.01-.43,3.51-1.3,5.01-2.06,2.68-3.59,3.56c-1.53.88-3.28,1.31-5.23,1.31s-3.7-.44-5.23-1.31ZM295.3,99.31c1.04-.59,1.85-1.4,2.43-2.45.59-1.05.88-2.22.88-3.51s-.29-2.45-.88-3.49-1.4-1.85-2.43-2.44c-1.04-.59-2.18-.88-3.42-.88s-2.38.29-3.42.88-1.85,1.4-2.44,2.44-.88,2.2-.88,3.49.29,2.46.88,3.51,1.4,1.87,2.44,2.45c1.04.59,2.18.88,3.42.88s2.38-.29,3.42-.88Z"/>
            <path d="M317.79,83.89v3.11c-.64-.14-1.29-.21-1.93-.21-1.82,0-3.31.49-4.47,1.47-1.16.98-1.74,2.35-1.74,4.13v10.4h-3.32v-18.82h3.14v2.94c.69-1.11,1.63-1.92,2.82-2.44s2.39-.78,3.61-.78c.71,0,1.35.07,1.9.21h-.01Z"/>
            <path d="M338.03,94.63h-15.99c.25,1.73,1.01,3.1,2.28,4.11s2.87,1.52,4.8,1.52c2.42,0,4.38-.75,5.87-2.25l1.97,2.28c-.78.88-1.85,1.58-3.19,2.12s-2.91.81-4.68.81c-2.1,0-3.94-.43-5.53-1.28-1.59-.85-2.81-2.03-3.66-3.52s-1.28-3.19-1.28-5.08.41-3.48,1.24-4.99,1.99-2.69,3.47-3.56,3.18-1.3,5.1-1.3,3.67.44,5.15,1.33c1.47.89,2.61,2.08,3.4,3.59s1.19,3.17,1.19,4.99c0,.37-.05.77-.14,1.21v.02ZM324.21,87.93c-1.15.97-1.88,2.29-2.18,3.97h12.78c-.23-1.59-.92-2.89-2.06-3.9-1.14-1.01-2.59-1.52-4.33-1.52s-3.06.48-4.21,1.45Z"/>
            <path d="M360.79,99.88v2.76c-.41.18-.96.28-1.62.28-1.04,0-1.93-.26-2.69-.79-.76-.53-1.21-1.3-1.35-2.31-.76,1.1-1.79,1.95-3.09,2.52s-2.72.86-4.27.86c-2.1,0-3.85-.51-5.27-1.52-1.42-1.01-2.12-2.44-2.12-4.28s.81-3.37,2.43-4.44,4.04-1.61,7.24-1.61h4.97v-.24c0-1.45-.49-2.58-1.47-3.38-.98-.81-2.3-1.21-3.95-1.21-1.06,0-2.12.17-3.18.52-1.06.35-1.98.84-2.76,1.49l-1.83-2.42c.99-.85,2.19-1.49,3.59-1.92,1.4-.43,2.84-.64,4.32-.64,2.63,0,4.7.66,6.23,1.97s2.3,3.12,2.3,5.42v7.6c0,1.01.52,1.52,1.55,1.52.37,0,.69-.06.97-.17h0ZM352.76,98.85c1.37-.99,2.12-2.58,2.26-4.77h-4.9c-4.28,0-6.42,1.07-6.42,3.21,0,.94.4,1.69,1.19,2.23s1.85.81,3.16.81c1.77,0,3.34-.5,4.72-1.49h0Z"/>
          </g>
          <path d="M247.73,102.11v.31h-4.1l-2.82-2.48c-2.24,1.95-4.95,2.92-8.14,2.92-1.79,0-3.37-.3-4.75-.9s-2.45-1.43-3.2-2.49c-.76-1.06-1.14-2.25-1.14-3.56,0-1.45.46-2.69,1.37-3.73.92-1.04,2.23-1.94,3.95-2.71-.97-.88-1.73-1.79-2.27-2.73s-.81-1.95-.81-3.04c0-1.17.32-2.23.95-3.17s1.51-1.67,2.63-2.19,2.38-.78,3.78-.78,2.62.25,3.71.76,1.95,1.2,2.56,2.09c.61.88.92,1.88.92,2.98,0,2.74-2.05,4.98-6.14,6.75l6.31,5.59c.59-.9,1.04-1.87,1.36-2.9s.5-2.04.54-3.03h3.15c-.05,1.36-.31,2.73-.78,4.12-.47,1.39-1.14,2.67-2,3.85l4.92,4.34h0ZM238.54,97.98l-7.56-6.68c-1.38.61-2.4,1.28-3.07,2.02-.67.73-1,1.55-1,2.46,0,1.24.55,2.25,1.64,3.02,1.1.77,2.51,1.15,4.26,1.15,2.21,0,4.13-.66,5.73-1.97ZM230.25,81.29c-.76.63-1.14,1.44-1.14,2.41,0,.68.21,1.36.64,2.04s1.16,1.48,2.2,2.41l.1.1c1.81-.7,3.11-1.42,3.92-2.17.8-.75,1.2-1.57,1.2-2.48s-.37-1.73-1.12-2.34-1.71-.92-2.88-.92-2.18.32-2.93.95h.01Z"/>
          <g>
            <path d="M239.87,44.14v17.2c0,1.68-.35,3.13-1.05,4.35-.7,1.22-1.69,2.15-2.95,2.8-1.27.64-2.71.97-4.32.97-2.46,0-4.47-.73-6.01-2.18-1.54-1.45-2.33-3.51-2.35-6.18h3.39c.07,1.87.56,3.2,1.49,4.01.92.81,2.07,1.21,3.45,1.21,1.52,0,2.72-.44,3.59-1.33s1.31-2.13,1.31-3.71v-17.13h3.45,0Z"/>
            <path d="M264.19,66.11v2.76c-.41.18-.96.28-1.62.28-1.04,0-1.93-.26-2.69-.79-.76-.53-1.21-1.3-1.35-2.31-.76,1.11-1.79,1.95-3.09,2.52s-2.72.86-4.27.86c-2.1,0-3.85-.51-5.27-1.52-1.42-1.01-2.12-2.44-2.12-4.28s.81-3.37,2.43-4.44c1.62-1.07,4.04-1.61,7.24-1.61h4.97v-.24c0-1.45-.49-2.58-1.47-3.38-.98-.81-2.3-1.21-3.95-1.21-1.06,0-2.12.17-3.18.52-1.06.34-1.98.84-2.76,1.49l-1.83-2.42c.99-.85,2.19-1.49,3.59-1.92s2.84-.64,4.32-.64c2.63,0,4.7.66,6.23,1.97s2.3,3.12,2.3,5.42v7.6c0,1.01.52,1.52,1.55,1.52.37,0,.69-.06.97-.17h0ZM256.16,65.07c1.37-.99,2.12-2.58,2.26-4.77h-4.9c-4.28,0-6.42,1.07-6.42,3.21,0,.94.4,1.69,1.19,2.23s1.85.81,3.16.81c1.77,0,3.34-.49,4.72-1.49h-.01Z"/>
            <path d="M282.67,51.03c1.45.86,2.59,2.04,3.42,3.54.83,1.5,1.24,3.17,1.24,5.01s-.41,3.52-1.24,5.03c-.83,1.51-1.97,2.69-3.42,3.56-1.45.86-3.1,1.3-4.94,1.3-1.52,0-2.88-.29-4.08-.88s-2.2-1.41-3.01-2.47v9.12h-3.32v-25.04h3.14v3.14c.81-1.13,1.82-2.01,3.06-2.64,1.23-.63,2.63-.95,4.2-.95,1.84,0,3.49.43,4.94,1.3v-.02ZM280.75,65.54c1-.59,1.78-1.4,2.35-2.44.56-1.04.85-2.21.85-3.52s-.28-2.45-.85-3.49-1.35-1.85-2.35-2.44-2.14-.88-3.4-.88-2.38.28-3.42.85-1.86,1.36-2.47,2.4-.91,2.22-.91,3.56.31,2.53.91,3.58c.61,1.05,1.43,1.85,2.47,2.42s2.18.85,3.42.85,2.4-.29,3.4-.88h0Z"/>
            <path d="M310.4,66.11v2.76c-.41.18-.96.28-1.62.28-1.04,0-1.93-.26-2.69-.79-.76-.53-1.21-1.3-1.35-2.31-.76,1.11-1.79,1.95-3.09,2.52s-2.72.86-4.27.86c-2.1,0-3.85-.51-5.27-1.52-1.42-1.01-2.12-2.44-2.12-4.28s.81-3.37,2.43-4.44c1.62-1.07,4.04-1.61,7.24-1.61h4.97v-.24c0-1.45-.49-2.58-1.47-3.38-.98-.81-2.3-1.21-3.95-1.21-1.06,0-2.12.17-3.18.52-1.06.34-1.98.84-2.76,1.49l-1.83-2.42c.99-.85,2.19-1.49,3.59-1.92s2.84-.64,4.32-.64c2.63,0,4.7.66,6.23,1.97s2.3,3.12,2.3,5.42v7.6c0,1.01.52,1.52,1.55,1.52.37,0,.69-.06.97-.17h0ZM302.37,65.07c1.37-.99,2.12-2.58,2.26-4.77h-4.9c-4.28,0-6.42,1.07-6.42,3.21,0,.94.4,1.69,1.19,2.23.79.54,1.85.81,3.16.81,1.77,0,3.34-.49,4.72-1.49h0Z"/>
            <path d="M329.16,51.69c1.4,1.3,2.11,3.04,2.11,5.23v12.09h-3.32v-11.47c0-1.47-.44-2.63-1.31-3.47-.88-.84-2.12-1.26-3.73-1.26-1.15,0-2.18.22-3.07.66s-1.6,1.03-2.09,1.78c-.5.75-.74,1.6-.74,2.54v11.23h-3.32v-18.82h3.14v2.59c.78-1.06,1.76-1.83,2.94-2.32,1.17-.48,2.43-.72,3.77-.72,2.35,0,4.22.65,5.63,1.95h-.01Z"/>
          </g>
        </g>
      </g>
    </g>
    <g>
      <path d="M34.83,138.1h-2.6l-1.87-4.66h-8.71l-1.89,4.66h-2.55l7.33-17.47h2.98l7.3,17.47ZM26.03,122.7l-3.52,8.66h7.01l-3.49-8.66Z"/>
      <path d="M38.67,119.86h2.33v15.04c0,.42.12.73.35.93.23.2.55.3.93.3.32,0,.68-.07,1.07-.22v2.11c-.44.18-.94.27-1.5.27-.97,0-1.74-.26-2.32-.79-.57-.53-.86-1.24-.86-2.15v-15.5Z"/>
      <path d="M47.45,119.86h2.33v15.04c0,.42.12.73.35.93.23.2.55.3.93.3.32,0,.68-.07,1.07-.22v2.11c-.44.18-.94.27-1.5.27-.97,0-1.74-.26-2.32-.79-.57-.53-.86-1.24-.86-2.15v-15.5Z"/>
      <path d="M78.87,127.67v-7.04h2.43v17.47h-2.43v-8.27h-10.92v8.27h-2.43v-17.47h2.43v7.04h10.92Z"/>
      <path d="M100.2,136.07v1.94c-.29.13-.67.19-1.14.19-.73,0-1.36-.19-1.89-.56-.53-.37-.85-.91-.95-1.63-.53.78-1.26,1.37-2.17,1.77s-1.91.61-3,.61c-1.47,0-2.71-.36-3.7-1.07-.99-.71-1.49-1.71-1.49-3.01s.57-2.37,1.71-3.12c1.14-.75,2.83-1.13,5.08-1.13h3.49v-.17c0-1.02-.34-1.81-1.03-2.38-.69-.57-1.61-.85-2.78-.85-.74,0-1.49.12-2.23.36-.74.24-1.39.59-1.94,1.04l-1.29-1.7c.7-.6,1.54-1.05,2.52-1.35.99-.3,2-.45,3.03-.45,1.84,0,3.3.46,4.38,1.38s1.61,2.19,1.61,3.81v5.34c0,.71.36,1.07,1.09,1.07.26,0,.49-.04.68-.12ZM94.56,135.34c.96-.7,1.49-1.81,1.59-3.35h-3.45c-3.01,0-4.51.75-4.51,2.26,0,.66.28,1.19.84,1.56.56.38,1.3.57,2.22.57,1.25,0,2.35-.35,3.31-1.04Z"/>
      <path d="M114.9,125.94c.99.91,1.48,2.14,1.48,3.68v8.49h-2.33v-8.06c0-1.03-.31-1.85-.92-2.44-.62-.59-1.49-.89-2.62-.89-.81,0-1.53.15-2.16.46s-1.12.72-1.47,1.25c-.35.53-.52,1.12-.52,1.78v7.89h-2.33v-13.22h2.21v1.82c.55-.74,1.24-1.29,2.06-1.63.83-.34,1.71-.51,2.65-.51,1.65,0,2.97.46,3.95,1.37Z"/>
      <path d="M132.56,119.86h2.33v18.25h-2.21v-2.21c-.57.79-1.28,1.41-2.15,1.86-.87.44-1.85.67-2.95.67-1.29,0-2.45-.3-3.47-.91-1.02-.61-1.82-1.44-2.4-2.5s-.87-2.24-.87-3.53.29-2.47.87-3.52c.58-1.05,1.38-1.88,2.4-2.49,1.02-.61,2.18-.91,3.47-.91,1.07,0,2.02.21,2.86.62.84.41,1.54.99,2.11,1.73v-7.06ZM130.26,135.69c.73-.4,1.31-.96,1.73-1.7s.64-1.57.64-2.51-.21-1.77-.64-2.5c-.43-.73-1.01-1.29-1.73-1.69-.73-.4-1.53-.59-2.4-.59s-1.69.21-2.39.62-1.25.98-1.65,1.71c-.4.73-.59,1.54-.59,2.45s.2,1.75.59,2.47c.4.73.95,1.3,1.65,1.71s1.5.62,2.39.62,1.67-.2,2.4-.59Z"/>
      <path d="M140.52,134.54c.63.5,1.41.92,2.33,1.26.92.34,1.88.51,2.86.51s1.84-.18,2.45-.55c.61-.36.92-.84.92-1.42,0-.42-.17-.75-.5-.99s-.82-.42-1.47-.53l-3.52-.63c-1.29-.24-2.26-.67-2.89-1.27s-.95-1.35-.95-2.24c0-.79.23-1.5.69-2.11s1.13-1.09,2-1.43c.87-.34,1.89-.51,3.06-.51,1,0,1.99.14,2.97.41.98.28,1.88.73,2.71,1.36l-1.24,1.72c-.57-.45-1.26-.82-2.09-1.09-.82-.27-1.66-.41-2.5-.41-.94,0-1.71.17-2.32.52s-.91.8-.91,1.37c0,.39.17.7.52.93.35.23.92.42,1.71.57l3.28.58c1.29.24,2.25.67,2.88,1.29s.93,1.38.93,2.28c0,.82-.24,1.55-.72,2.18-.48.63-1.15,1.12-2.03,1.48-.87.36-1.88.53-3.01.53s-2.32-.18-3.51-.53c-1.19-.36-2.16-.84-2.9-1.46l1.21-1.82Z"/>
      <path d="M184.9,120.64v17.47h-2.35v-14.51l-6.62,14.15h-1.67l-6.55-13.9v14.27h-2.35v-17.47h3.28l6.5,13.9,6.5-13.9h3.28Z"/>
      <path d="M203.38,132.38h-11.23c.18,1.21.71,2.18,1.6,2.89.89.71,2.01,1.07,3.37,1.07,1.7,0,3.07-.53,4.12-1.58l1.38,1.6c-.55.62-1.3,1.11-2.24,1.49s-2.04.57-3.29.57c-1.47,0-2.77-.3-3.88-.9-1.12-.6-1.97-1.42-2.57-2.47-.6-1.05-.9-2.24-.9-3.57s.29-2.45.87-3.51c.58-1.06,1.4-1.89,2.44-2.5,1.04-.61,2.24-.91,3.58-.91s2.58.31,3.62.93c1.04.62,1.83,1.46,2.39,2.52.56,1.06.84,2.23.84,3.51,0,.26-.03.54-.1.85ZM193.68,127.67c-.81.68-1.32,1.61-1.53,2.79h8.98c-.16-1.12-.64-2.03-1.44-2.74-.8-.71-1.82-1.07-3.04-1.07-1.16,0-2.15.34-2.96,1.02Z"/>
      <path d="M220.63,132.38h-11.23c.18,1.21.71,2.18,1.6,2.89.89.71,2.01,1.07,3.37,1.07,1.7,0,3.07-.53,4.12-1.58l1.38,1.6c-.55.62-1.3,1.11-2.24,1.49s-2.04.57-3.29.57c-1.47,0-2.77-.3-3.88-.9-1.12-.6-1.97-1.42-2.57-2.47-.6-1.05-.9-2.24-.9-3.57s.29-2.45.87-3.51c.58-1.06,1.4-1.89,2.44-2.5,1.04-.61,2.24-.91,3.58-.91s2.58.31,3.62.93c1.04.62,1.83,1.46,2.39,2.52.56,1.06.84,2.23.84,3.51,0,.26-.03.54-.1.85ZM210.93,127.67c-.81.68-1.32,1.61-1.53,2.79h8.98c-.16-1.12-.64-2.03-1.44-2.74-.8-.71-1.82-1.07-3.04-1.07-1.16,0-2.15.34-2.96,1.02Z"/>
      <path d="M232.81,135.75v2.09c-.6.32-1.4.49-2.4.49-1.52,0-2.69-.39-3.49-1.16-.81-.78-1.21-1.84-1.21-3.2v-7.11h-2.26v-1.97h2.28v-3.13l2.3-1.09v4.22h4.66v1.97h-4.66v6.82c0,.82.24,1.45.72,1.88s1.12.64,1.93.64c.73,0,1.44-.15,2.14-.44Z"/>
      <path d="M237.08,122.48c-.29-.27-.44-.62-.44-1.04s.15-.77.44-1.04.66-.41,1.09-.41.8.14,1.09.41.44.62.44,1.04-.15.77-.44,1.04c-.29.28-.65.41-1.09.41s-.8-.14-1.09-.41ZM239.34,138.1h-2.33v-13.22h2.33v13.22Z"/>
      <path d="M255.79,125.94c.99.91,1.48,2.14,1.48,3.68v8.49h-2.33v-8.06c0-1.03-.31-1.85-.92-2.44-.62-.59-1.49-.89-2.62-.89-.81,0-1.53.15-2.16.46s-1.12.72-1.47,1.25c-.35.53-.52,1.12-.52,1.78v7.89h-2.33v-13.22h2.21v1.82c.55-.74,1.24-1.29,2.06-1.63.83-.34,1.71-.51,2.65-.51,1.65,0,2.97.46,3.95,1.37Z"/>
      <path d="M273.4,124.88h2.21v11.99c0,1.18-.3,2.21-.89,3.09-.59.88-1.42,1.56-2.47,2.04-1.06.48-2.28.72-3.65.72-2.12,0-4-.42-5.63-1.26l.87-1.97c1.49.78,3.06,1.16,4.73,1.16,1.41,0,2.54-.34,3.41-1.03.87-.69,1.3-1.63,1.3-2.83v-1.5c-.55.71-1.23,1.26-2.05,1.65-.82.39-1.75.58-2.8.58-1.29,0-2.45-.28-3.46-.84-1.01-.56-1.8-1.33-2.35-2.32-.56-.99-.84-2.09-.84-3.3s.28-2.32.84-3.31c.56-.99,1.34-1.77,2.35-2.34,1.01-.57,2.16-.85,3.46-.85,1.08,0,2.05.21,2.89.64.84.43,1.54,1.03,2.09,1.81v-2.14ZM271.01,134.89c.7-.35,1.26-.85,1.67-1.5.41-.65.62-1.43.62-2.32s-.21-1.64-.62-2.3-.97-1.18-1.69-1.54c-.71-.36-1.5-.55-2.35-.55s-1.63.19-2.32.56c-.69.37-1.23.89-1.61,1.55-.39.66-.58,1.42-.58,2.28s.19,1.61.58,2.27.93,1.16,1.61,1.53c.69.36,1.46.55,2.32.55s1.66-.17,2.37-.52Z"/>
      <path d="M289.56,122.87c.91-.82,1.95-1.46,3.13-1.89,1.18-.44,2.44-.65,3.79-.65,1.26,0,2.37.21,3.32.64.95.43,1.69,1.02,2.22,1.78.53.76.79,1.63.79,2.62s-.27,1.91-.81,2.67c-.54.76-1.2,1.4-1.97,1.92-.77.52-1.8,1.13-3.09,1.84-.99.52-1.78.96-2.37,1.33-.59.37-1.13.79-1.61,1.26-.49.47-.83.99-1.02,1.58h11.21v2.14h-13.85v-.85c0-1.16.3-2.18.9-3.04.6-.87,1.31-1.58,2.15-2.15.83-.57,1.94-1.21,3.31-1.94,1.07-.57,1.92-1.05,2.55-1.46.63-.4,1.15-.87,1.56-1.4.41-.53.62-1.11.62-1.76,0-.89-.37-1.61-1.12-2.17-.74-.56-1.71-.84-2.89-.84-.99,0-1.95.19-2.9.57-.95.38-1.77.89-2.46,1.52l-1.46-1.72Z"/>
      <path d="M310.96,137.3c-1.16-.74-2.06-1.8-2.68-3.17s-.93-2.96-.93-4.77.31-3.4.93-4.77c.62-1.37,1.52-2.42,2.68-3.17,1.16-.74,2.52-1.12,4.08-1.12s2.91.37,4.08,1.12c1.16.74,2.06,1.8,2.68,3.17.62,1.37.93,2.96.93,4.77s-.31,3.4-.93,4.77-1.52,2.42-2.68,3.17c-1.17.74-2.52,1.12-4.08,1.12s-2.91-.37-4.08-1.12ZM317.82,135.4c.78-.56,1.39-1.35,1.82-2.39.43-1.03.64-2.25.64-3.64s-.21-2.6-.64-3.64c-.43-1.03-1.04-1.83-1.82-2.39-.78-.56-1.71-.84-2.78-.84s-1.99.28-2.78.84-1.39,1.35-1.82,2.39c-.43,1.04-.64,2.25-.64,3.64s.21,2.6.64,3.64c.43,1.04,1.03,1.83,1.82,2.39.78.56,1.71.84,2.78.84s1.99-.28,2.78-.84Z"/>
      <path d="M326.78,122.87c.91-.82,1.95-1.46,3.13-1.89,1.18-.44,2.44-.65,3.79-.65,1.26,0,2.37.21,3.32.64.95.43,1.69,1.02,2.22,1.78.53.76.79,1.63.79,2.62s-.27,1.91-.81,2.67c-.54.76-1.2,1.4-1.97,1.92-.77.52-1.8,1.13-3.09,1.84-.99.52-1.78.96-2.37,1.33-.59.37-1.13.79-1.61,1.26-.49.47-.83.99-1.02,1.58h11.21v2.14h-13.85v-.85c0-1.16.3-2.18.9-3.04.6-.87,1.31-1.58,2.15-2.15.83-.57,1.94-1.21,3.31-1.94,1.07-.57,1.92-1.05,2.55-1.46.63-.4,1.15-.87,1.56-1.4.41-.53.62-1.11.62-1.76,0-.89-.37-1.61-1.12-2.17-.74-.56-1.71-.84-2.89-.84-.99,0-1.95.19-2.9.57-.95.38-1.77.89-2.46,1.52l-1.46-1.72Z"/>
      <path d="M355.94,127.49c1,.49,1.78,1.17,2.34,2.04.56.87.84,1.85.84,2.95s-.29,2.15-.87,3.06c-.58.91-1.39,1.61-2.43,2.12-1.04.51-2.22.76-3.54.76-1.54,0-2.89-.36-4.05-1.07s-2.07-1.73-2.71-3.07c-.64-1.33-.96-2.9-.96-4.69,0-1.91.36-3.56,1.07-4.96s1.69-2.47,2.95-3.2c1.25-.74,2.68-1.1,4.28-1.1.97,0,1.94.15,2.91.44.97.29,1.84.74,2.6,1.33l-1.19,1.84c-.62-.5-1.31-.87-2.09-1.12s-1.54-.36-2.28-.36c-1.12,0-2.12.27-3,.81-.88.54-1.57,1.32-2.06,2.33-.49,1.01-.74,2.19-.74,3.53v.46c.52-.95,1.26-1.67,2.22-2.14.96-.47,2.06-.7,3.29-.7s2.42.25,3.42.74ZM354.53,135.76c.67-.33,1.2-.78,1.58-1.36.38-.57.57-1.22.57-1.93s-.19-1.33-.57-1.89c-.38-.57-.91-1.01-1.59-1.32-.68-.32-1.45-.47-2.31-.47s-1.63.16-2.33.49c-.7.32-1.24.76-1.64,1.32-.4.56-.59,1.19-.59,1.88s.21,1.35.62,1.93c.41.57.97,1.03,1.67,1.36s1.48.5,2.32.5,1.6-.17,2.27-.5Z"/>
    </g>
  </g>
</svg>