<?xml version="1.0" encoding="UTF-8"?><svg id="_レイヤー_2" xmlns="http://www.w3.org/2000/svg" xmlns:xlink="http://www.w3.org/1999/xlink" viewBox="0 0 1006.53 330.23"><defs><style>.cls-1{fill:#fff;}.cls-2{fill:url(#_名称未設定グラデーション_43);}.cls-3{fill:url(#_名称未設定グラデーション_29);}</style><linearGradient id="_名称未設定グラデーション_29" x1="324.11" y1="241.2" x2="812.59" y2="241.2" gradientUnits="userSpaceOnUse"><stop offset="0" stop-color="red"/><stop offset=".52" stop-color="#ff9200"/><stop offset="1" stop-color="#3ccbcf"/></linearGradient><linearGradient id="_名称未設定グラデーション_43" x1="49.18" y1="252.59" x2="49.18" y2="330.23" gradientUnits="userSpaceOnUse"><stop offset=".1" stop-color="red"/><stop offset=".57" stop-color="#ff9200"/><stop offset=".61" stop-color="#f4950b"/><stop offset=".67" stop-color="#d89d28"/><stop offset=".75" stop-color="#aaaa59"/><stop offset=".85" stop-color="#6cbc9b"/><stop offset=".92" stop-color="#3ccbcf"/></linearGradient></defs><g id="design"><path d="M155.5,146.07c-.22-.22-.33-.52-.33-.9v-1.53c0-.61.31-1.07.92-1.38l.92-.46c1.4-.68,2.5-1.47,3.29-2.38s1.36-2.07,1.7-3.49.52-3.23.52-5.45V52.21c0-2.22-.17-4.03-.52-5.45-.34-1.41-.91-2.58-1.7-3.49s-1.89-1.7-3.29-2.38l-.92-.46c-.61-.31-.92-.77-.92-1.38v-1.53c0-.38.11-.68.33-.9.22-.22.52-.33.9-.33h23.85c.39,0,.73.11,1.01.32.28.21.6.61.97,1.21l43.27,70.02c.16.24.3.4.39.49.09.08.22.12.37.12s.27-.05.34-.14c.08-.1.12-.25.12-.47v-55.65c0-2.22-.17-4.03-.51-5.45-.35-1.41-.91-2.58-1.7-3.49s-1.89-1.7-3.29-2.38l-.92-.46c-.61-.31-.92-.77-.92-1.38v-1.53c0-.38.11-.68.32-.9s.52-.33.9-.33h20.18c.38,0,.68.11.9.33.22.22.33.52.33.9v1.53c0,.61-.31,1.07-.92,1.38l-.92.46c-1.4.67-2.5,1.47-3.29,2.38s-1.36,2.07-1.7,3.49c-.34,1.41-.52,3.23-.52,5.45v92.96c0,.38-.11.68-.32.9-.22.22-.51.32-.9.32h-5.5c-.4,0-.72-.1-.98-.3s-.55-.56-.85-1.08l-54.43-88.22c-.15-.24-.28-.4-.38-.49-.1-.08-.23-.12-.38-.12s-.27.04-.34.13c-.08.09-.11.25-.11.48v73.69c0,2.22.17,4.03.52,5.45.34,1.41.91,2.58,1.7,3.49.79.91,1.89,1.7,3.29,2.38l.92.46c.61.31.92.76.92,1.38v1.53c0,.38-.11.68-.33.9-.22.22-.52.32-.9.32h-20.18c-.38,0-.68-.11-.9-.32Z"/><path d="M265.65,142.39c-6.12-3.48-10.83-8.47-14.11-14.95-3.29-6.48-4.93-14.13-4.93-22.93s1.51-16.56,4.53-23.05c3.02-6.48,7.34-11.45,12.95-14.9,5.61-3.45,12.22-5.17,19.83-5.17s14.17,1.72,19.73,5.17c5.56,3.45,9.83,8.41,12.8,14.89,2.98,6.48,4.46,14.16,4.46,23.06v1.07c0,.38-.11.68-.32.9s-.52.33-.9.33h-51.68c-.38,0-.68.11-.9.32-.22.22-.32.52-.32.9.26,7.4,1.23,13.51,2.93,18.31,1.7,4.8,4.16,8.38,7.37,10.73,3.21,2.35,7.22,3.53,12.02,3.53,4.23,0,7.96-.92,11.19-2.75,3.23-1.83,5.74-4.48,7.53-7.93,1.79-3.45,2.69-7.54,2.69-12.25,0-.38.11-.68.32-.9s.52-.32.9-.32h4.89c.38,0,.68.11.9.32.22.22.32.52.32.9,0,6.17-1.23,11.5-3.69,16-2.46,4.5-5.99,7.96-10.58,10.36-4.59,2.4-10.03,3.6-16.31,3.6-8.3,0-15.5-1.74-21.62-5.23ZM300.71,99.74c.22-.22.32-.52.32-.9-.31-7.05-1.13-12.86-2.47-17.44-1.34-4.58-3.23-7.99-5.65-10.23-2.42-2.24-5.42-3.36-9-3.36s-6.58,1.12-9,3.36c-2.42,2.24-4.3,5.65-5.65,10.23-1.34,4.58-2.17,10.39-2.47,17.44,0,.38.11.68.32.9s.52.32.9.32h31.8c.38,0,.68-.11.9-.32Z"/><path d="M321.84,146.07c-.22-.22-.32-.52-.32-.9v-1.38c0-.61.31-1.07.92-1.38l.92-.46c1.11-.55,2.08-1.19,2.92-1.91.84-.73,1.68-1.62,2.51-2.69s1.93-2.59,3.28-4.57l18.96-27.37c.19-.24.29-.47.29-.69,0-.13-.03-.26-.09-.4-.06-.14-.12-.29-.2-.44l-15.75-27.67c-1.06-1.85-1.99-3.33-2.8-4.44-.81-1.11-1.64-2.04-2.48-2.78-.85-.74-1.84-1.39-2.97-1.95l-.92-.46c-.61-.31-.92-.76-.92-1.38v-1.38c0-.38.11-.68.33-.9.22-.22.51-.32.9-.32h32.87c.38,0,.68.11.9.32.22.22.32.52.32.9v1.38c0,.61-.31,1.07-.92,1.38l-.92.46c-1.48.71-2.58,1.48-3.32,2.31-.73.83-1.1,1.77-1.1,2.83,0,1.16.45,2.5,1.36,4.03l8.71,15.29c.17.24.3.4.39.49.1.08.22.12.37.12s.28-.04.38-.12c.1-.08.23-.24.38-.49l9.33-15.29c.94-1.53,1.41-2.87,1.41-4.03,0-1.05-.37-1.98-1.12-2.81-.75-.83-1.86-1.6-3.35-2.33l-.92-.46c-.61-.31-.92-.76-.92-1.38v-1.38c0-.38.11-.68.33-.9.22-.22.52-.32.9-.32h21.56c.38,0,.68.11.9.32.22.22.33.52.33.9v1.38c0,.61-.31,1.07-.92,1.38l-.92.46c-1.12.56-2.1,1.2-2.92,1.93s-1.64,1.64-2.43,2.74c-.79,1.1-1.76,2.6-2.9,4.5l-14.37,23.39c-.15.31-.23.56-.23.77s.08.46.23.76l18.04,31.65c1.06,1.85,1.99,3.33,2.8,4.44.81,1.12,1.64,2.04,2.49,2.78.85.74,1.84,1.39,2.97,1.95l.92.46c.61.31.92.76.92,1.38v1.38c0,.38-.11.68-.32.9-.22.22-.52.32-.9.32h-32.87c-.38,0-.68-.11-.9-.32-.22-.22-.32-.52-.32-.9v-1.38c0-.61.31-1.07.92-1.38l.92-.46c1.48-.71,2.58-1.48,3.32-2.31.73-.83,1.1-1.77,1.1-2.83,0-1.16-.45-2.5-1.36-4.03l-11.16-19.57c-.15-.24-.28-.4-.38-.49-.1-.08-.23-.12-.38-.12s-.28.04-.37.12c-.1.08-.23.25-.39.49l-13.45,19.57c-1.12,1.63-1.68,3.06-1.68,4.28,0,.99.36,1.89,1.07,2.68s1.78,1.53,3.21,2.22l.92.46c.61.31.92.76.92,1.38v1.38c0,.38-.11.68-.33.9-.22.22-.52.32-.9.32h-21.86c-.38,0-.68-.11-.9-.32Z"/><path d="M425.6,144.96c-3.28-1.77-5.79-4.3-7.56-7.6-1.76-3.29-2.65-7.16-2.65-11.61v-52.13c0-1.38-.37-2.43-1.11-3.17-.74-.74-1.8-1.11-3.17-1.11h-4.89c-.38,0-.68-.11-.9-.33-.22-.22-.32-.51-.32-.9v-4.28c0-.38.11-.68.32-.9s.52-.32.9-.32h7.95c.38,0,.68-.11.9-.33.22-.22.33-.52.33-.9v-17.12c0-.38.11-.68.32-.9s.52-.32.9-.32h15.59c.38,0,.68.11.9.32s.32.52.32.9v17.12c0,.38.11.68.33.9.22.22.52.33.9.33h18.04c.38,0,.68.11.9.32.22.22.32.52.32.9v4.28c0,.38-.11.68-.32.9s-.52.33-.9.33h-18.04c-.38,0-.68.11-.9.32s-.33.52-.33.9v55.19c0,3.61.22,6.48.66,8.64.44,2.15,1.14,3.72,2.09,4.71.96.99,2.23,1.48,3.82,1.48,1.46,0,2.71-.43,3.75-1.28s1.81-2.1,2.34-3.75.79-3.64.79-5.98v-8.87c0-.38.11-.68.32-.9s.52-.32.9-.32h4.59c.38,0,.68.11.9.32.22.22.32.52.32.9v8.87c0,5.95-1.42,10.44-4.27,13.48-2.85,3.04-7.03,4.56-12.55,4.56-4.4,0-8.23-.89-11.5-2.66Z"/><path d="M506.94,140.94c-7.29-4.45-12.88-10.9-16.77-19.34-3.89-8.44-5.83-18.52-5.83-30.24s1.9-21.84,5.71-30.27c3.81-8.43,9.31-14.87,16.51-19.32,7.2-4.45,15.79-6.67,25.78-6.67,3.33,0,6.35.23,9.08.68,2.73.45,5.01.97,6.86,1.57,1.85.59,3.78,1.3,5.79,2.11,1.21.47,2.11.81,2.7,1s1.11.3,1.56.3c.62,0,1.14-.13,1.54-.39.4-.26.75-.69,1.06-1.29l.92-1.83c.15-.31.35-.53.6-.69.25-.15.56-.23.93-.23h4.13c.38,0,.68.11.9.33s.32.52.32.9v30.88c0,.38-.11.68-.32.9-.22.22-.52.32-.9.32h-3.97c-.37,0-.68-.08-.94-.25s-.45-.49-.59-.97c-1.07-3.4-2.29-6.61-3.67-9.63-2.59-5.62-5.94-9.8-10.05-12.55-4.11-2.75-9.02-4.12-14.72-4.12-6.43,0-11.75,1.78-15.95,5.34-4.2,3.56-7.33,8.97-9.39,16.23-2.06,7.26-3.1,16.48-3.1,27.65s1.05,20.29,3.15,27.51c2.1,7.22,5.3,12.59,9.58,16.12s9.72,5.29,16.31,5.29c5.61,0,10.51-1.32,14.71-3.95,4.2-2.63,7.43-6.36,9.71-11.2,2.27-4.84,3.41-10.49,3.41-16.96,0-.38.11-.68.33-.9.22-.22.52-.32.9-.32h5.2c.38,0,.68.11.9.32.22.22.33.52.33.9,0,8.38-1.42,15.52-4.26,21.41-2.84,5.89-7,10.37-12.49,13.43-5.48,3.06-12.13,4.6-19.94,4.6-10.05,0-18.73-2.23-26.02-6.68Z"/><path d="M575.63,146.07c-.22-.22-.33-.52-.33-.9v-1.38c0-.61.31-1.07.92-1.38l.92-.46c1.26-.62,2.24-1.38,2.93-2.26.69-.88,1.19-2.03,1.5-3.45.31-1.42.46-3.29.46-5.61V47.17c0-2.32-.15-4.19-.46-5.61-.31-1.42-.81-2.57-1.5-3.45-.69-.88-1.67-1.63-2.93-2.26l-.92-.46c-.61-.31-.92-.76-.92-1.38v-1.38c0-.38.11-.68.33-.9s.52-.32.9-.32h22.32c.38,0,.68.11.9.32.22.22.32.52.32.9v40.21c0,.51.1.76.31.76.08,0,.16-.04.25-.13s.21-.25.36-.48c1.62-2.43,3.64-4.52,6.06-6.26,2.42-1.74,5.14-3.07,8.17-3.98,3.03-.92,6.23-1.38,9.62-1.38,7.75,0,13.56,2.43,17.43,7.3,3.87,4.87,5.81,12.22,5.81,22.05v39.9c0,2.32.15,4.19.46,5.61.31,1.42.81,2.57,1.5,3.45.69.88,1.67,1.63,2.93,2.26l.92.46c.61.31.92.76.92,1.38v1.38c0,.38-.11.68-.32.9-.22.22-.52.32-.9.32h-29.05c-.38,0-.68-.11-.9-.32s-.32-.52-.32-.9v-1.38c0-.61.31-1.07.92-1.38l.92-.46c1.26-.62,2.24-1.38,2.93-2.26.69-.88,1.19-2.03,1.5-3.45.31-1.42.46-3.29.46-5.61v-42.35c0-4.09-.42-7.47-1.25-10.13s-2.11-4.65-3.82-5.95c-1.71-1.3-3.9-1.96-6.55-1.96-2.27,0-4.5.45-6.71,1.35-2.2.9-4.26,2.19-6.17,3.87-1.91,1.68-3.58,3.66-5.01,5.94-.31.61-.46,1.12-.46,1.53v47.7c0,2.32.15,4.19.46,5.61.31,1.42.81,2.57,1.5,3.45.69.88,1.67,1.63,2.93,2.26l.92.46c.61.31.92.76.92,1.38v1.38c0,.38-.11.68-.32.9-.22.22-.52.32-.9.32h-29.05c-.38,0-.68-.11-.9-.32Z"/><path d="M670.53,144.76c-3.68-1.9-6.54-4.59-8.56-8.06-2.03-3.47-3.04-7.48-3.04-12.01s1.03-8.59,3.1-12.21c2.06-3.62,5.11-6.72,9.15-9.3s8.97-4.58,14.82-6.01l19.72-4.89c.31-.08.54-.22.69-.44.15-.22.23-.48.23-.78v-2.14c0-7.03-1.2-12.26-3.61-15.67-2.41-3.41-6.1-5.12-11.06-5.12-2.93,0-5.53.57-7.8,1.7-2.27,1.13-4.37,2.93-6.31,5.39-1.94,2.46-3.86,5.75-5.77,9.88-.47,1.02-.82,1.82-1.04,2.4-.22.58-.49,1.36-.79,2.34-.14.48-.34.81-.59.97-.26.17-.57.25-.94.25h-3.67c-.38,0-.68-.11-.9-.33-.22-.22-.33-.52-.33-.9v-25.99c0-.38.11-.68.33-.9.22-.22.52-.32.9-.32h3.82c.38,0,.69.08.94.23s.44.38.59.69l.92,1.84c.48,1.12,1.25,1.68,2.29,1.68.43,0,.92-.11,1.45-.34.53-.23,1.27-.6,2.22-1.11,1.54-.82,2.98-1.5,4.3-2.06,1.32-.56,2.98-1.06,4.96-1.49,1.98-.43,4.19-.65,6.64-.65,6.7,0,12.4,1.19,17.11,3.56,4.7,2.38,8.27,5.85,10.72,10.42,2.45,4.57,3.67,10.1,3.67,16.6v38.68c0,2.32.15,4.19.46,5.61.31,1.42.81,2.57,1.5,3.45.69.88,1.67,1.63,2.93,2.26l.92.46c.61.31.92.76.92,1.38v1.38c0,.38-.11.68-.32.9-.22.22-.52.32-.9.32h-21.71c-.38,0-.68-.11-.9-.32-.22-.22-.32-.52-.32-.9v-9.63c0-.51-.1-.77-.31-.77-.08,0-.16.04-.25.13-.09.09-.21.25-.36.48-2.63,3.94-5.9,6.96-9.82,9.07-3.92,2.11-8.35,3.16-13.26,3.16s-9.03-.95-12.71-2.86ZM695.24,137.39c2.1-.9,4.1-2.2,5.98-3.88,1.89-1.68,3.54-3.66,4.95-5.92.31-.61.46-1.12.46-1.53v-25.99c0-.32-.06-.56-.17-.72-.11-.16-.3-.24-.55-.24-.12.01-.23.02-.34.04l-11.92,3.06c-3.69.92-6.7,2.24-9,3.96-2.31,1.72-4.01,3.92-5.1,6.59-1.1,2.68-1.64,5.94-1.64,9.79,0,3.45.43,6.39,1.29,8.81.86,2.42,2.12,4.26,3.79,5.51,1.67,1.26,3.69,1.88,6.08,1.88,2.03,0,4.09-.45,6.19-1.36Z"/><path d="M733.36,173.59c-.22-.22-.33-.52-.33-.9v-1.38c0-.61.31-1.07.92-1.38l.92-.46c1.26-.62,2.24-1.38,2.93-2.25s1.19-2.03,1.5-3.45c.31-1.42.46-3.29.46-5.61v-79.81c0-2.32-.15-4.19-.46-5.61-.31-1.42-.81-2.57-1.5-3.45-.69-.88-1.67-1.63-2.93-2.25l-.92-.46c-.61-.31-.92-.76-.92-1.38v-1.38c0-.38.11-.68.33-.9.22-.22.52-.32.9-.32h21.71c.38,0,.68.11.9.32.22.22.32.52.32.9v9.63c0,.51.1.76.31.76.08,0,.16-.04.25-.13.09-.09.21-.25.36-.48,1.72-2.57,3.79-4.78,6.2-6.61,2.41-1.84,5.07-3.23,7.97-4.19,2.9-.96,5.92-1.43,9.07-1.43,6.56,0,12.48,1.84,17.76,5.52,5.28,3.68,9.42,8.8,12.43,15.35,3.01,6.55,4.51,13.96,4.51,22.24s-1.5,15.7-4.51,22.24-7.15,11.66-12.43,15.35c-5.28,3.68-11.2,5.52-17.76,5.52-3.1,0-6.06-.46-8.91-1.38-2.84-.92-5.43-2.25-7.78-3.98-2.34-1.74-4.33-3.83-5.94-6.26-.15-.23-.27-.39-.36-.48-.09-.09-.17-.13-.25-.13-.2,0-.31.25-.31.76v22.02c0,2.32.15,4.19.46,5.61.31,1.42.81,2.57,1.5,3.45.69.88,1.67,1.63,2.93,2.25l.92.46c.61.31.92.77.92,1.38v1.38c0,.38-.11.68-.32.9-.22.22-.52.33-.9.33h-29.05c-.38,0-.68-.11-.9-.33ZM786.74,134.68c2.96-2.71,5.22-6.64,6.78-11.77,1.57-5.13,2.35-11.27,2.35-18.4s-.78-13.27-2.35-18.4c-1.57-5.13-3.83-9.06-6.78-11.77-2.96-2.71-6.49-4.07-10.59-4.07-2.36,0-4.63.45-6.83,1.35-2.2.9-4.23,2.18-6.1,3.85-1.87,1.67-3.52,3.66-4.96,5.96-.31.61-.46,1.12-.46,1.53v43.11c0,.41.15.92.46,1.53,1.44,2.31,3.09,4.29,4.96,5.96,1.87,1.67,3.9,2.95,6.1,3.85,2.2.9,4.48,1.35,6.83,1.35,4.1,0,7.63-1.36,10.59-4.07Z"/><path d="M837.42,144.96c-3.28-1.77-5.79-4.3-7.56-7.6-1.76-3.29-2.65-7.16-2.65-11.61v-52.13c0-1.38-.37-2.43-1.11-3.17-.74-.74-1.8-1.11-3.17-1.11h-4.89c-.38,0-.68-.11-.9-.33-.22-.22-.32-.51-.32-.9v-4.28c0-.38.11-.68.32-.9s.52-.32.9-.32h7.95c.38,0,.68-.11.9-.33.22-.22.33-.52.33-.9v-17.12c0-.38.11-.68.32-.9s.52-.32.9-.32h15.59c.38,0,.68.11.9.32s.32.52.32.9v17.12c0,.38.11.68.33.9.22.22.52.33.9.33h18.04c.38,0,.68.11.9.32.22.22.32.52.32.9v4.28c0,.38-.11.68-.32.9s-.52.33-.9.33h-18.04c-.38,0-.68.11-.9.32s-.33.52-.33.9v55.19c0,3.61.22,6.48.66,8.64.44,2.15,1.14,3.72,2.09,4.71.96.99,2.23,1.48,3.82,1.48,1.46,0,2.71-.43,3.75-1.28s1.81-2.1,2.34-3.75.79-3.64.79-5.98v-8.87c0-.38.11-.68.32-.9s.52-.32.9-.32h4.59c.38,0,.68.11.9.32.22.22.32.52.32.9v8.87c0,5.95-1.42,10.44-4.27,13.48-2.85,3.04-7.03,4.56-12.55,4.56-4.4,0-8.23-.89-11.5-2.66Z"/><path d="M889.34,142.39c-6.12-3.48-10.83-8.47-14.11-14.95-3.29-6.48-4.93-14.13-4.93-22.93s1.51-16.56,4.53-23.05c3.02-6.48,7.34-11.45,12.95-14.9,5.61-3.45,12.22-5.17,19.83-5.17s14.17,1.72,19.73,5.17c5.56,3.45,9.83,8.41,12.8,14.89,2.98,6.48,4.46,14.16,4.46,23.06v1.07c0,.38-.11.68-.32.9s-.52.33-.9.33h-51.68c-.38,0-.68.11-.9.32-.22.22-.32.52-.32.9.26,7.4,1.23,13.51,2.93,18.31,1.7,4.8,4.16,8.38,7.37,10.73,3.21,2.35,7.22,3.53,12.02,3.53,4.23,0,7.96-.92,11.19-2.75,3.23-1.83,5.74-4.48,7.53-7.93,1.79-3.45,2.69-7.54,2.69-12.25,0-.38.11-.68.32-.9s.52-.32.9-.32h4.89c.38,0,.68.11.9.32.22.22.32.52.32.9,0,6.17-1.23,11.5-3.69,16-2.46,4.5-5.99,7.96-10.58,10.36-4.59,2.4-10.03,3.6-16.31,3.6-8.3,0-15.5-1.74-21.62-5.23ZM924.4,99.74c.22-.22.32-.52.32-.9-.31-7.05-1.13-12.86-2.47-17.44-1.34-4.58-3.23-7.99-5.65-10.23-2.42-2.24-5.42-3.36-9-3.36s-6.58,1.12-9,3.36c-2.42,2.24-4.3,5.65-5.65,10.23-1.34,4.58-2.17,10.39-2.47,17.44,0,.38.11.68.32.9s.52.32.9.32h31.8c.38,0,.68-.11.9-.32Z"/><path d="M948.45,146.07c-.22-.22-.32-.52-.32-.9v-1.38c0-.61.31-1.07.92-1.38l.92-.46c1.26-.62,2.24-1.38,2.93-2.26.69-.88,1.19-2.03,1.5-3.45.31-1.42.46-3.29.46-5.61v-52.29c0-2.32-.15-4.19-.46-5.61-.31-1.42-.81-2.57-1.5-3.45-.69-.88-1.67-1.63-2.93-2.25l-.92-.46c-.61-.31-.92-.76-.92-1.38v-1.38c0-.38.11-.68.32-.9.22-.22.52-.32.9-.32h21.4c.38,0,.68.11.9.32.22.22.32.52.32.9v6.88c0,.51.1.76.31.76.08,0,.16-.04.25-.13s.21-.25.36-.48c2.01-3.03,4.06-5.27,6.14-6.71,2.08-1.44,4.37-2.16,6.85-2.16,1.31,0,2.54.2,3.69.59,1.15.4,2.14.85,2.98,1.38.84.52,1.73,1.14,2.66,1.85.66.5,1.15.82,1.45.98s.64.24.99.24c.45,0,.8-.14,1.07-.43.27-.29.52-.75.77-1.4l.61-1.68c.09-.28.24-.5.44-.67.2-.17.52-.25.94-.25h3.82c.38,0,.68.11.9.32.22.22.32.52.32.9v25.99c0,.38-.11.68-.32.9s-.52.33-.9.33h-3.67c-.37,0-.68-.08-.94-.25-.26-.16-.45-.49-.59-.97-.26-.84-.5-1.59-.74-2.24-.24-.65-.5-1.35-.79-2.1l-.15-.4c-1.89-4.97-3.95-8.68-6.2-11.14-2.25-2.46-4.62-3.69-7.1-3.69-1.38,0-2.78.38-4.2,1.13-1.43.75-2.79,1.83-4.1,3.23-1.31,1.4-2.46,3.06-3.47,4.97-.31.61-.46,1.12-.46,1.53v49.53c0,2.32.15,4.19.46,5.61.31,1.42.81,2.57,1.5,3.45.69.88,1.67,1.63,2.93,2.26l.92.46c.61.31.92.76.92,1.38v1.38c0,.38-.11.68-.32.9-.22.22-.52.32-.9.32h-29.05c-.38,0-.68-.11-.9-.32Z"/><path d="M174.06,294.07c-6.03-3.48-10.65-8.47-13.88-14.95-3.23-6.48-4.84-14.13-4.84-22.93s1.61-16.45,4.84-22.93c3.23-6.48,7.86-11.47,13.88-14.95,6.03-3.48,13.14-5.23,21.33-5.23s15.3,1.74,21.33,5.23c6.03,3.49,10.66,8.47,13.88,14.95,3.23,6.48,4.85,14.13,4.85,22.93s-1.62,16.45-4.85,22.93c-3.23,6.48-7.86,11.47-13.88,14.95-6.03,3.49-13.13,5.23-21.33,5.23s-15.3-1.74-21.33-5.23ZM215.26,256.18c0-24.46-6.63-36.69-19.88-36.69s-19.87,12.23-19.87,36.69,6.63,36.69,19.87,36.69,19.88-12.23,19.88-36.69Z"/><path d="M246.26,222.13c-.74-.74-1.8-1.11-3.17-1.11h-5.2c-.38,0-.68-.11-.9-.33-.22-.22-.33-.51-.33-.9v-4.28c0-.38.11-.68.33-.9s.52-.32.9-.32h8.26c.38,0,.68-.11.9-.33.22-.22.33-.52.33-.9v-7.95c0-4.38.95-8.34,2.86-11.88,1.91-3.54,4.53-6.31,7.88-8.33,3.35-2.02,7.11-3.03,11.28-3.03,1.9,0,3.57.19,5.02.58,1.45.39,2.63.84,3.56,1.35.92.51,1.89,1.13,2.89,1.85.6.43,1.08.75,1.44.96s.7.31,1,.31c.42,0,.76-.15,1.03-.46s.53-.76.8-1.38l.46-1.07c.09-.28.24-.5.44-.67.2-.16.52-.25.94-.25h3.82c.38,0,.68.11.9.32s.33.52.33.9v21.71c0,.38-.11.68-.33.9-.22.22-.51.32-.9.32h-3.97c-.34,0-.63-.08-.86-.24-.23-.16-.45-.49-.67-.98-.2-.53-.4-1.01-.57-1.41s-.41-.93-.71-1.57l-.25-.53c-2.2-4.78-4.33-8.29-6.36-10.54s-4.1-3.37-6.17-3.37c-1.92,0-3.37.9-4.35,2.71s-1.46,4.57-1.46,8.29v13.45c0,.38.11.68.33.9.22.22.52.33.9.33h16.82c.38,0,.68.11.9.32s.33.52.33.9v4.28c0,.38-.11.68-.33.9-.22.22-.52.33-.9.33h-16.82c-.38,0-.68.11-.9.32s-.33.52-.33.9v60.08c0,2.32.15,4.19.46,5.61.31,1.42.81,2.57,1.5,3.45.69.88,1.67,1.63,2.93,2.26l.92.46c.61.31.92.76.92,1.38v1.38c0,.38-.11.68-.33.9-.22.22-.52.32-.9.32h-29.05c-.38,0-.68-.11-.9-.32-.22-.22-.32-.52-.32-.9v-1.38c0-.61.31-1.07.92-1.38l.92-.46c1.26-.62,2.24-1.38,2.93-2.26.69-.88,1.19-2.03,1.5-3.45.31-1.42.46-3.29.46-5.61v-57.03c0-1.38-.37-2.43-1.11-3.17Z"/><path class="cls-3" d="M346.59,292.63c-7.29-4.45-12.86-10.89-16.7-19.32-3.85-8.43-5.77-18.52-5.77-30.27s1.9-21.84,5.71-30.27c3.81-8.43,9.31-14.87,16.51-19.32,7.2-4.45,15.79-6.67,25.78-6.67,3.33,0,6.35.23,9.08.68,2.73.45,5.01.97,6.86,1.57,1.85.59,3.78,1.3,5.79,2.11,1.21.47,2.11.81,2.7,1s1.11.3,1.56.3c.62,0,1.14-.13,1.54-.39.4-.26.75-.69,1.06-1.29l.92-1.83c.15-.31.35-.53.6-.69.25-.15.56-.23.93-.23h4.13c.38,0,.68.11.9.33s.32.52.32.9v30.88c0,.38-.11.68-.32.9-.22.22-.52.32-.9.32h-3.97c-.37,0-.68-.08-.94-.25s-.45-.49-.59-.97c-1.07-3.4-2.29-6.61-3.67-9.63-2.59-5.62-5.94-9.8-10.05-12.55-4.11-2.75-9.02-4.12-14.72-4.12-6.43,0-11.75,1.78-15.95,5.34-4.2,3.56-7.33,8.97-9.39,16.23-2.06,7.26-3.1,16.48-3.1,27.65s1.04,20.39,3.12,27.71c2.08,7.33,5.2,12.79,9.35,16.41,4.16,3.61,9.38,5.42,15.66,5.42,4.56,0,8.42-.9,11.56-2.71,3.15-1.81,5.52-4.45,7.13-7.91,1.6-3.47,2.41-7.67,2.41-12.61v-7.03c0-2.25-.14-4.09-.43-5.51s-.78-2.59-1.49-3.51c-.71-.92-1.7-1.68-2.97-2.29l-.92-.46c-.61-.31-.92-.76-.92-1.38v-1.53c0-.38.11-.68.32-.9.22-.22.52-.32.9-.32h28.13c.38,0,.68.11.9.32.22.22.32.52.32.9v1.53c0,.61-.31,1.07-.92,1.38l-.92.46c-1.16.56-2.05,1.3-2.67,2.21s-1.04,2.08-1.27,3.5c-.23,1.42-.34,3.29-.34,5.61v34.55c0,.38-.11.68-.32.9-.22.22-.52.32-.9.32h-4.13c-.37,0-.68-.08-.93-.23-.25-.15-.45-.38-.6-.69l-1.53-3.06c-.31-.6-.66-1.03-1.06-1.29-.4-.26-.91-.39-1.54-.39-.46,0-1.04.12-1.74.36s-1.83.67-3.38,1.28c-2.45.98-4.72,1.83-6.82,2.54-2.1.71-4.56,1.34-7.37,1.88-2.81.54-5.75.81-8.82.81-10.14,0-18.86-2.22-26.14-6.67ZM420.91,297.75c-.22-.22-.32-.52-.32-.9v-1.38c0-.61.31-1.07.92-1.38l.92-.46c1.26-.62,2.24-1.38,2.93-2.26.69-.88,1.19-2.03,1.5-3.45.31-1.42.46-3.29.46-5.61v-52.29c0-2.32-.15-4.19-.46-5.61-.31-1.42-.81-2.57-1.5-3.45-.69-.88-1.67-1.63-2.93-2.25l-.92-.46c-.61-.31-.92-.76-.92-1.38v-1.38c0-.38.11-.68.32-.9.22-.22.52-.32.9-.32h21.4c.38,0,.68.11.9.32.22.22.32.52.32.9v6.88c0,.51.1.76.31.76.08,0,.16-.04.25-.13s.21-.25.36-.48c2.01-3.03,4.06-5.27,6.14-6.71,2.08-1.44,4.37-2.16,6.85-2.16,1.31,0,2.54.2,3.69.59,1.15.4,2.14.85,2.98,1.38.84.52,1.73,1.14,2.66,1.85.66.5,1.15.82,1.45.98s.64.24.99.24c.45,0,.8-.14,1.07-.43.27-.29.52-.75.77-1.4l.61-1.68c.09-.28.24-.5.44-.67.2-.17.52-.25.94-.25h3.82c.38,0,.68.11.9.32.22.22.32.52.32.9v25.99c0,.38-.11.68-.32.9s-.52.33-.9.33h-3.67c-.37,0-.68-.08-.94-.25-.26-.16-.45-.49-.59-.97-.26-.84-.5-1.59-.74-2.24-.24-.65-.5-1.35-.79-2.1l-.15-.4c-1.89-4.97-3.95-8.68-6.2-11.14-2.25-2.46-4.62-3.69-7.1-3.69-1.38,0-2.78.38-4.2,1.13-1.43.75-2.79,1.83-4.1,3.23-1.31,1.4-2.46,3.06-3.47,4.97-.31.61-.46,1.12-.46,1.53v49.53c0,2.32.15,4.19.46,5.61.31,1.42.81,2.57,1.5,3.45.69.88,1.67,1.63,2.93,2.26l.92.46c.61.31.92.76.92,1.38v1.38c0,.38-.11.68-.32.9-.22.22-.52.32-.9.32h-29.05c-.38,0-.68-.11-.9-.32ZM502.1,294.07c-6.03-3.48-10.65-8.47-13.88-14.95-3.23-6.48-4.84-14.13-4.84-22.93s1.61-16.45,4.84-22.93c3.23-6.48,7.86-11.47,13.88-14.95,6.03-3.48,13.14-5.23,21.33-5.23s15.3,1.74,21.33,5.23c6.03,3.49,10.65,8.47,13.88,14.95,3.23,6.48,4.84,14.13,4.84,22.93s-1.62,16.45-4.84,22.93c-3.23,6.48-7.86,11.47-13.88,14.95-6.03,3.49-13.14,5.23-21.33,5.23s-15.3-1.74-21.33-5.23ZM543.31,256.18c0-24.46-6.63-36.69-19.88-36.69s-19.87,12.23-19.87,36.69,6.62,36.69,19.87,36.69,19.88-12.23,19.88-36.69ZM591.68,297.81c-.26-.18-.46-.5-.61-.95l-22.47-68.95c-.56-1.73-1.16-3.17-1.79-4.32-.63-1.15-1.35-2.1-2.16-2.86-.81-.76-1.79-1.42-2.93-2l-.92-.46c-.61-.31-.92-.76-.92-1.38v-1.38c0-.38.11-.68.32-.9s.52-.32.9-.32h31.19c.38,0,.68.11.9.32s.32.52.32.9v1.38c0,.61-.31,1.07-.92,1.38l-.92.46c-1.54.74-2.67,1.58-3.37,2.52-.71.94-1.06,2.04-1.06,3.29,0,.98.2,2.1.61,3.36l12.23,38.68c.08.23.16.39.25.48.09.09.21.13.36.13s.27-.04.36-.13c.09-.09.17-.25.25-.48l11.16-34.71c.19-.66.29-1.22.29-1.66,0-.51-.1-1.08-.29-1.7l-3.97-12.08c-.1-.29-.15-.57-.15-.84,0-.41.12-.73.37-.96s.58-.34,1-.34h16.05c.46,0,.81.09,1.07.27.26.18.46.5.61.96l16.21,51.06c.08.23.16.39.25.48.09.09.21.13.36.13s.27-.04.36-.13c.09-.09.17-.25.25-.48l12.38-38.68c.41-1.22.61-2.33.61-3.31,0-1.25-.35-2.35-1.06-3.32-.71-.96-1.83-1.81-3.37-2.55l-.92-.46c-.61-.31-.92-.76-.92-1.38v-1.38c0-.38.11-.68.32-.9s.52-.32.9-.32h20.18c.38,0,.68.11.9.32.22.22.33.52.33.9v1.38c0,.61-.31,1.07-.92,1.38l-.92.46c-1.13.57-2.11,1.25-2.92,2.03-.82.78-1.54,1.74-2.16,2.88s-1.22,2.56-1.8,4.27l-22.63,68.95c-.15.46-.36.78-.61.95-.26.18-.61.27-1.07.27h-4.89c-.46,0-.82-.09-1.07-.27-.26-.18-.46-.5-.61-.95l-16.97-52.13c-.08-.23-.16-.39-.25-.48-.09-.09-.21-.13-.36-.13s-.27.04-.36.13-.17.25-.25.48l-17.12,52.13c-.15.46-.36.78-.61.95-.26.18-.61.27-1.07.27h-4.89c-.46,0-.81-.09-1.07-.27ZM700.34,296.64c-3.28-1.77-5.79-4.3-7.56-7.6-1.76-3.29-2.65-7.16-2.65-11.61v-52.13c0-1.38-.37-2.43-1.11-3.17s-1.8-1.11-3.17-1.11h-4.89c-.38,0-.68-.11-.9-.33-.22-.22-.32-.51-.32-.9v-4.28c0-.38.11-.68.32-.9s.52-.32.9-.32h7.95c.38,0,.68-.11.9-.33.22-.22.33-.52.33-.9v-17.12c0-.38.11-.68.32-.9s.52-.32.9-.32h15.59c.38,0,.68.11.9.32s.32.52.32.9v17.12c0,.38.11.68.33.9.22.22.52.33.9.33h18.04c.38,0,.68.11.9.32.22.22.32.52.32.9v4.28c0,.38-.11.68-.32.9s-.52.33-.9.33h-18.04c-.38,0-.68.11-.9.32s-.33.52-.33.9v55.19c0,3.61.22,6.48.66,8.64.44,2.15,1.14,3.72,2.09,4.71.96.99,2.23,1.48,3.82,1.48,1.46,0,2.71-.43,3.75-1.28s1.81-2.1,2.34-3.75.79-3.64.79-5.98v-8.87c0-.38.11-.68.32-.9s.52-.32.9-.32h4.59c.38,0,.68.11.9.32.22.22.32.52.32.9v8.87c0,5.95-1.42,10.44-4.27,13.48-2.85,3.04-7.03,4.56-12.55,4.56-4.4,0-8.23-.89-11.5-2.66ZM733.42,297.75c-.22-.22-.33-.52-.33-.9v-1.38c0-.61.31-1.07.92-1.38l.92-.46c1.26-.62,2.24-1.38,2.93-2.26.69-.88,1.19-2.03,1.5-3.45.31-1.42.46-3.29.46-5.61v-83.48c0-2.32-.15-4.19-.46-5.61-.31-1.42-.81-2.57-1.5-3.45-.69-.88-1.67-1.63-2.93-2.26l-.92-.46c-.61-.31-.92-.76-.92-1.38v-1.38c0-.38.11-.68.33-.9s.52-.32.9-.32h22.32c.38,0,.68.11.9.32.22.22.32.52.32.9v40.21c0,.51.1.76.31.76.08,0,.16-.04.25-.13s.21-.25.36-.48c1.62-2.43,3.64-4.52,6.06-6.26,2.42-1.74,5.14-3.07,8.17-3.98,3.03-.92,6.23-1.38,9.62-1.38,7.75,0,13.56,2.43,17.43,7.3,3.87,4.87,5.81,12.22,5.81,22.05v39.9c0,2.32.15,4.19.46,5.61.31,1.42.81,2.57,1.5,3.45.69.88,1.67,1.63,2.93,2.26l.92.46c.61.31.92.76.92,1.38v1.38c0,.38-.11.68-.32.9-.22.22-.52.32-.9.32h-29.05c-.38,0-.68-.11-.9-.32s-.32-.52-.32-.9v-1.38c0-.61.31-1.07.92-1.38l.92-.46c1.26-.62,2.24-1.38,2.93-2.26.69-.88,1.19-2.03,1.5-3.45.31-1.42.46-3.29.46-5.61v-42.35c0-4.09-.42-7.47-1.25-10.13-.83-2.66-2.11-4.65-3.82-5.95-1.71-1.3-3.9-1.96-6.55-1.96-2.27,0-4.5.45-6.71,1.35s-4.26,2.19-6.17,3.87c-1.91,1.68-3.58,3.66-5.01,5.94-.31.61-.46,1.12-.46,1.53v47.7c0,2.32.15,4.19.46,5.61.31,1.42.81,2.57,1.5,3.45.69.88,1.67,1.63,2.93,2.26l.92.46c.61.31.92.76.92,1.38v1.38c0,.38-.11.68-.32.9-.22.22-.52.32-.9.32h-29.05c-.38,0-.68-.11-.9-.32Z"/><path d="M87.65,292.55c-1.72-5.39-5.52-14.58-5.49-33.69.02-20.5,6.73-60.17,7.03-62.63.5-4.1,1.5-8.19-.73-9.12,2.34-1.74,1.07-38.82-2.33-50.85-.58-2.06-1.23-3.41-1.93-3.69,2.43,0,1.57-5.67,1.06-9.57-.56-4.3-3.07-12.12-6.16-21.64-2.05-6.32-4.36-13.38-6.52-20.68-2.42-8.17-6.22-20.49-7.45-29.62-1.14-8.48-.9-19.3-.9-23.98,1.61-1.61,2.23-2.34,2.16-4.87-.07-2.64-3.44-9.09-3.44-10.02s.04-2.03,1.23-3.11c1.32-1.21,1.25-3.3.67-5.02-.69-2.07-3.26-2.7-4.73-3.06-1.35-.32-8.12-.99-15.12-.99s-13.77.67-15.12.99c-1.47.36-4.04.98-4.73,3.06-.58,1.72-.65,3.81.67,5.02,1.19,1.08,1.23,2.19,1.23,3.11s-3.38,7.37-3.45,10.02c-.07,2.54.56,3.26,2.17,4.87,0,4.69.24,15.51-.9,23.98-1.25,9.13-5.04,21.45-7.47,29.62-2.16,7.3-4.47,14.36-6.52,20.68-3.09,9.52-5.6,17.34-6.15,21.64-.51,3.9-1.36,9.57,1.06,9.57-.7.28-1.35,1.63-1.93,3.69-3.4,12.03-4.66,49.12-2.32,50.85-2.24.94-1.23,5.02-.73,9.12.3,2.46,7.01,42.12,7.04,62.63.02,19.11-3.78,28.29-5.5,33.69-2.43,7.65-5.02,27.14,3.79,32.14,5.28,2.99,22.79,5.55,38.87,5.55s33.58-2.55,38.87-5.55c8.81-4.99,6.23-24.49,3.79-32.14Z"/><path class="cls-2" d="M87.65,292.55c-1.72-5.39-5.52-14.58-5.49-33.69,0-1.94.06-4.04.17-6.27h0s-1.25,10.23-2.83,14.17c-1.07,2.68-2.83,4.55-2.83,4.55l-.63.76-53.02,49.37s-2.16,1.46-2.57,1.72c-1.49.93-2.4,1.3-4.57,1.98-4.2,1.32-7.5.54-7.5.54,6.99,2.54,22.36,4.55,36.61,4.55,16.07,0,33.58-2.55,38.87-5.55,8.81-4.99,6.23-24.49,3.79-32.14Z"/><path class="cls-1" d="M24.73,298.92c-1.23-12.26.26-17.5,6.53-23.18,8.13-7.35,20.39-5.81,27.63-3.7,4.55,1.33,7.93,2.6,12.39,2.09,3.25-.37,5.39-2.81,5.39-2.81-.66,1.15-2.9,3.44-3.42,3.97l-48.91,45.28c-1.65,1.41-3.89,2.6-3.89,2.6,3.28-2.62,4.67-6.18,4.72-11.44.04-3.63-.12-9.6-.44-12.81Z"/></g></svg>