<?xml version="1.0" encoding="UTF-8"?><svg id="_レイヤー_2" xmlns="http://www.w3.org/2000/svg" viewBox="0 0 1305.37 240.94"><g id="design"><path d="M332.72,240.81c-18.4-12.91-40.74-18.58-61.08-17.8-20.55.87-29.77,16.2-29.77,16.2-9.29-16.2-27.62-26.11-55.95-25.88-45.74.54-91.1,21.71-127.06,21.71S-.82,213.32.02,174.85C1.46,107.41,58.5,46.55,101.08,19.2,125.6,3.41,146.12-1.23,159.53.26c9.78,1.09,21.57,12.39,14.14,29.05-10.91,24.4-25.97,22.39-25.4,10.7.28-7.55,5.35-12.34,9.15-14.94,2.39-1.67,6.65-2.15,8.9-2.2,2.11-1.83,3.76-15.15-13.79-10.75-17.56,4.4-38.71,21.61-58.84,43.86-20.13,22.22-51.44,64.34-59.18,108.55-3.62,20.48-1.2,57.81,47.33,57.41,41.18-.35,101.91-27.5,157.71-26.99,21.68.18,40.53,6,55.21,15.13,14.5,8.9,31.81,21.87,37.97,30.72M345.88,118.44h8.44s-42.26,61.12-66.15,58.36c-13.41-1.53-9.47-18.02-9.47-18.02,0,0-18.72,21.96-35.89,17.59-15.59-3.99-5.53-29.96-5.53-29.96-1.8.7-35.57,38.81-59.26,29.68-24.8-9.59-11.96-41.45-7.25-51.02,4.02-8.08,8.41-15.98,8.41-15.98,0,0-3.8,1.09-6.16,1.64-2.36.55-5.98,1.25-5.98,1.25,0,0-11.72,19.09-18.9,28.63-7.14,9.52-37.65,42.29-55.63,35.77-17.98-6.54-13.55-31.68-3.45-51.65,16.37-32.43,55.21-72.22,78.58-66.3,23.65,6.04,4.12,44.41,4.12,44.41,0,0,4.71.6,15.97-7.09,16.22-11.07,37.62-40.87,60.8-37.39,10.91,1.62,21.04,12.81,7.18,34.04-4.44,6.79-11.9,12.91-17.63,6.9-3.52-3.73-.42-10.56,3.31-15.25,5.25-6.63,12.49-5.72,12.49-5.72,0,0,3.83-8.79-5.88-8.64-7.92.18-27.84,18.56-39.13,37.16-10.34,17.05-25.97,46.13-10.24,52.45,14.39,5.83,41.83-26.78,54.54-43.81,12.67-17.1,41.63-55.81,65.91-57.43,8.3-.53,13.33,7.11,13.33,7.11l2.81-4.45h24.24s-45.7,76.37-49.3,82.16c-2.81,4.54-6.54,14.71,3.8,8.99,10.34-5.73,31.88-33.43,31.88-33.43M157.63,110.68c-.39-.12-6.54-1.88-12.49-5.68-5.94-3.83-8.69-9.5-8.9-9.89-.25-.37-.46-.09-.7.25-.25.32-1.55,1.97-10.17,14.67-8.65,12.7-21.46,38.74-9.46,43.19,7.7,2.85,20.61-10.68,27.58-19.62,6.47-8.3,14.22-21.06,14.54-21.8.32-.78.03-.95-.39-1.13M167.23,70.11c-6.37-4.82-22.56,6.46-22.63,17.95-.1,11.81,14.64,15.17,16.51,15.24,0,0,1.65.46,2.32-.95.42-.86,2.39-4.57,4.65-10.41,2.21-5.86,5.06-17.33-.84-21.82M290.88,133.69c9.79-13.42,36.84-60.51,36.84-60.51,0,0-.49-3.31-3.66-3.45-3.73-.16-9.92,1.09-22.34,16.61-12.42,15.52-21.99,27.9-28.99,40.73-7.67,14.02-11.05,23.93-6.62,26.58,1.2.76,3.13.85,4.61.49,2.89-.7,6.65-3.59,11.79-9.55,2.39-2.8,5.17-6.51,8.37-10.91M399.92,60.79h-23.05l-13.01,21.08h23.04l13.02-21.08ZM740.01,22.96c-17.03,10.94-40.6,20.86-63.3,18.72-5.73,5.93-11.86,12.75-18.05,20.29,39.38,7.74,73.76-16.61,92.09-37.37,11.4-12.95,17.03-24.53,17.03-24.53,0,0-10.9,12.05-27.76,22.89M672.59,201.66c-3.24,5.19-6.93,15.22,3.83,8.96,13.05-7.6,31.77-35.94,31.77-35.94h8.45s-11.12,17.63-25.62,33.71c-13.33,14.74-29.56,28.11-40.96,26.83-13.37-1.59-9.18-19.1-9.18-19.1,0,0-19.14,20.34-32.34,18.93-17.8-2-12.39-24.07-12.39-24.07,0,0-20.16,24.82-33.88,24.07-21.53-1.3-16.15-27.6-10.17-45.97,3.2-9.85,6.23-17.63,6.23-17.63,0,0-2.18.58-6.79,1.23-2.36.35-6.76.6-6.76.6,0,0-8.93,15.85-16.11,25.39-7.18,9.55-37.65,42.33-55.63,35.73-16.61-6.02-11.12-31.49-1.48-51.66,14.11-29.45,53.77-71.78,76.64-66.24,23.68,5.75.53,49.05.53,49.05,0,0,.04.14.25.23.5.21,1.72.34,4.58-.23,4.53-.86,8.69-2.61,8.69-2.61,0,0,23.82-49.93,50.14-82.6,26.32-32.67,78.86-88.97,99.48-75.35,5.07,3.33,2.78,14.87-4.01,28.85-3.03.95-6.12,1.79-9.32,2.45,4.57-8.23,7.56-15.18,8.44-20.05,3.09-16.86-36.31,18.7-64.46,57.02-28.12,38.32-45.01,73-45.01,73,0,0,5.7-3.22,14.54-10.36,9.26-7.44,21.92-19.12,35.72-33.39,9.32-9.61,20.23-21.68,30.48-35.15,3.03-.16,6.01-.46,8.93-.92-11.4,15.34-23.37,29.38-33.57,39.69-11.19,11.35-23.33,23.59-33.96,32.5-16.78,14.14-29.76,22.15-29.76,22.15,0,0-24.63,49.63-11.26,52.82,7.88,1.88,23.44-22.1,23.44-22.1,0,0,20.26-30.95,32.51-44.88,16.65-18.98,31.03-29.96,45.39-30.15,8.37-.17,13.3,8.74,13.3,8.74l3.9-6.09h24.28s-45.18,76.78-48.84,82.57M536.38,171.4c-.46-.14-5.7-2.53-11.15-7.07-5.45-4.54-8.2-9.75-8.41-10.17-.21-.39-.46-.09-.71.25-.21.32-1.23,1.2-9.85,13.9-8.66,12.7-21.92,38.95-9.89,43.38,7.71,2.83,20.51-10.61,27.48-19.56,6.47-8.3,12.56-18.86,12.91-19.63.35-.74.03-.93-.39-1.09M548.59,149.95c2.25-5.84,5.07-17.31-.88-21.78-6.33-4.82-22.56,6.42-22.62,17.95-.08,11.75,11.43,17.1,14.21,17.82,1.58.46,2.11.39,2.89-.88.46-.83,4.18-7.25,6.4-13.11M687.72,133.77c.53-.86.7-1.65.7-1.65,0,0-.39-3.31-3.59-3.45-3.73-.14-8.83.56-22.2,15.39-13.34,14.76-21.43,27.59-28.47,40.43-7.67,13.99-10.77,24.42-6.33,27.13,1.23.78,3.13.83,4.64.47,2.96-.75,6.34-3.53,11.51-9.48,2.43-2.78,5.07-6.74,8.27-11.14,8.83-12.05,31.07-50.05,35.47-57.71M740.01,22.96c-17.03,10.94-40.6,20.86-63.3,18.72-5.73,5.93-11.86,12.75-18.05,20.29,39.38,7.74,73.76-16.61,92.09-37.37,11.4-12.95,17.03-24.53,17.03-24.53,0,0-10.9,12.05-27.76,22.89M629.52,51.46c-18.61-9.5-32.23-21.15-46.37-28.43-13.51-6.91-22.2-9.8-33.11-8.34-1.83.25-4.5,1.15-4.5,1.15,0,0,5.67,19.16-16.75,51.42-22.63,32.67-43.14,32.52-48.99,23.47-6.12-9.46,1.76-28.8,14.92-46.01,13.82-17.96,38.07-32.9,38.07-32.9,0,0-7.7-4.71-26.71,6.05-18.51,10.5-50.49,35.47-80.05,77.6-29.52,42.08-35.43,65.27-39.66,83.53-4.25,18.21-.35,37.79,19.85,37.79s43.74-30.89,50.39-41.63c12.35-19.99,20.38-50.65,3.62-46.43-8.3,2.09-15.02,11.3-19.21,20.07-4.36,9.08-6.08,17.75-6.08,17.75,0,0-7.01,2.5-16.4,9.52-9.39,7.04-15.55,13.76-15.55,13.76,0,0,.08-14.59,11.72-38.18,11.58-23.61,32.91-34.4,45-35.4,10.91-.91,25.06,8.34,13.09,42.49-11.96,34.13-47.4,75.49-84.59,76.1-34.38.45-56.86-43.39-9.08-119.85C431.94,30.4,494.01,4.45,514.18,1.53c20.13-2.9,26.7,5.98,26.7,5.98,0,0,16.86-7.81,38.25-6.35,24.66,1.69,43.7,19.09,68.79,31.3-6.58,6.35-12.81,12.9-18.41,19M537.86,18.32s-14.35,5.75-31.11,24.21c-16.82,18.51-26.46,39.21-19.28,44.69,2.78,2.13,9.15,2.46,20.76-7.99,9.08-8.13,18.3-18.77,24.52-34.03,7.5-18.28,5.1-26.67,5.1-26.88"/><path d="M949.7,190.43l-23.68,22.49v26.31h-13.15v-94.71h13.15v52.35l55.38-52.35h16.57l-38.93,36.96,41.44,57.74h-16.05l-34.73-48.8Z"/><path d="M1023.03,235.95c-5.83-3.33-10.39-7.85-13.68-13.55-3.29-5.7-4.93-12.06-4.93-19.07s1.65-13.37,4.93-19.07c3.29-5.7,7.85-10.19,13.68-13.48,5.83-3.29,12.47-4.93,19.93-4.93s14.1,1.65,19.93,4.93c5.83,3.29,10.39,7.78,13.68,13.48,3.29,5.7,4.93,12.06,4.93,19.07s-1.64,13.37-4.93,19.07c-3.29,5.7-7.85,10.22-13.68,13.55-5.83,3.33-12.48,5-19.93,5s-14.1-1.67-19.93-5ZM1055.98,226.02c3.95-2.24,7.04-5.35,9.27-9.34,2.24-3.99,3.36-8.44,3.36-13.35s-1.12-9.34-3.36-13.29c-2.24-3.95-5.33-7.04-9.27-9.27-3.95-2.24-8.29-3.35-13.02-3.35s-9.08,1.12-13.02,3.35c-3.95,2.24-7.04,5.33-9.27,9.27-2.24,3.95-3.36,8.38-3.36,13.29s1.12,9.36,3.36,13.35c2.24,3.99,5.33,7.1,9.27,9.34,3.95,2.24,8.28,3.36,13.02,3.36s9.08-1.12,13.02-3.36Z"/><path d="M1141.61,167.28v11.84c-2.46-.53-4.91-.79-7.37-.79-6.93,0-12.61,1.86-17.03,5.59-4.43,3.73-6.64,8.97-6.64,15.72v39.59h-12.63v-71.69h11.97v11.18c2.63-4.21,6.2-7.3,10.72-9.27,4.52-1.97,9.09-2.96,13.74-2.96,2.72,0,5.13.26,7.23.79Z"/><path d="M1218.69,208.19h-60.9c.96,6.57,3.86,11.79,8.68,15.65,4.82,3.86,10.92,5.79,18.28,5.79,9.21,0,16.66-2.85,22.36-8.55l7.5,8.68c-2.98,3.33-7.04,6.03-12.17,8.09-5.13,2.06-11.07,3.09-17.82,3.09-7.98,0-14.99-1.62-21.05-4.87-6.05-3.24-10.7-7.71-13.94-13.41-3.24-5.7-4.87-12.15-4.87-19.34s1.58-13.26,4.74-19.01c3.16-5.74,7.56-10.26,13.22-13.55,5.66-3.29,12.12-4.93,19.4-4.93s13.98,1.69,19.6,5.07c5.61,3.38,9.93,7.94,12.96,13.68,3.02,5.74,4.54,12.08,4.54,19.01,0,1.4-.18,2.94-.53,4.6ZM1166.08,182.68c-4.39,3.68-7.15,8.73-8.29,15.13h48.67c-.88-6.05-3.49-11.01-7.83-14.87-4.34-3.86-9.85-5.79-16.51-5.79-6.32,0-11.67,1.84-16.05,5.52Z"/><path d="M1305.37,228.19v10.52c-1.58.7-3.64,1.05-6.18,1.05-3.95,0-7.37-1.01-10.26-3.03-2.89-2.02-4.6-4.95-5.13-8.81-2.89,4.21-6.82,7.41-11.78,9.6-4.95,2.19-10.37,3.29-16.24,3.29-7.98,0-14.67-1.93-20.06-5.79-5.39-3.86-8.09-9.29-8.09-16.31s3.09-12.83,9.27-16.91c6.18-4.08,15.37-6.12,27.56-6.12h18.94v-.92c0-5.52-1.86-9.82-5.59-12.89-3.73-3.07-8.75-4.6-15.06-4.6-4.03,0-8.07.66-12.1,1.97-4.03,1.32-7.54,3.2-10.52,5.66l-6.97-9.21c3.77-3.24,8.33-5.68,13.68-7.3,5.35-1.62,10.83-2.43,16.44-2.43,10,0,17.91,2.5,23.74,7.5,5.83,5,8.75,11.88,8.75,20.65v28.94c0,3.86,1.98,5.79,5.92,5.79,1.4,0,2.63-.22,3.68-.66ZM1274.79,224.24c5.22-3.77,8.09-9.82,8.61-18.15h-18.68c-16.31,0-24.47,4.08-24.47,12.23,0,3.6,1.51,6.43,4.54,8.49s7.04,3.09,12.03,3.09c6.75,0,12.74-1.89,17.96-5.66Z"/><path d="M874.83,236.68v1.16h-15.63l-10.72-9.43c-8.52,7.41-18.85,11.11-30.99,11.11-6.8,0-12.83-1.14-18.08-3.42-5.25-2.28-9.32-5.44-12.2-9.49-2.89-4.05-4.33-8.56-4.33-13.56,0-5.51,1.74-10.24,5.23-14.2,3.49-3.96,8.5-7.4,15.04-10.33-3.7-3.36-6.59-6.82-8.65-10.39-2.07-3.57-3.1-7.43-3.1-11.56,0-4.47,1.2-8.5,3.62-12.07,2.41-3.57,5.75-6.35,10.01-8.33,4.26-1.98,9.06-2.97,14.4-2.97s9.97.97,14.14,2.9c4.18,1.94,7.43,4.58,9.75,7.94,2.33,3.36,3.49,7.15,3.49,11.37,0,10.42-7.79,18.98-23.37,25.7l24.02,21.31c2.24-3.44,3.96-7.12,5.17-11.04,1.2-3.92,1.89-7.77,2.07-11.56h12.01c-.17,5.17-1.16,10.39-2.97,15.69-1.81,5.3-4.35,10.18-7.62,14.66l18.72,16.53ZM839.83,220.93l-28.79-25.44c-5.25,2.33-9.15,4.89-11.69,7.68-2.54,2.8-3.81,5.92-3.81,9.36,0,4.73,2.08,8.57,6.26,11.49,4.18,2.93,9.58,4.39,16.21,4.39,8.43,0,15.71-2.5,21.82-7.49ZM808.26,157.39c-2.88,2.41-4.33,5.47-4.33,9.17,0,2.58.82,5.17,2.46,7.75,1.63,2.58,4.43,5.64,8.39,9.17l.39.39c6.89-2.67,11.86-5.42,14.91-8.26,3.06-2.84,4.58-5.98,4.58-9.43,0-3.62-1.42-6.59-4.26-8.91-2.84-2.32-6.5-3.49-10.98-3.49s-8.28,1.21-11.17,3.62Z"/><path d="M844.89,15.9v65.5c0,6.4-1.34,11.93-4.01,16.58-2.68,4.65-6.42,8.2-11.25,10.65-4.82,2.45-10.31,3.68-16.44,3.68-9.39,0-17.01-2.76-22.89-8.29-5.88-5.52-8.86-13.37-8.95-23.54h12.89c.26,7.1,2.15,12.19,5.66,15.26,3.51,3.07,7.89,4.6,13.16,4.6,5.79,0,10.34-1.69,13.68-5.06,3.33-3.38,5-8.09,5-14.14V15.9h13.16Z"/><path d="M937.49,99.56v10.52c-1.58.7-3.64,1.05-6.18,1.05-3.95,0-7.37-1.01-10.26-3.03-2.89-2.01-4.6-4.95-5.13-8.81-2.89,4.21-6.82,7.41-11.78,9.6-4.95,2.19-10.37,3.29-16.24,3.29-7.98,0-14.67-1.93-20.06-5.79-5.39-3.86-8.09-9.29-8.09-16.31s3.09-12.83,9.27-16.9c6.18-4.08,15.37-6.12,27.56-6.12h18.94v-.92c0-5.52-1.86-9.82-5.59-12.89-3.73-3.07-8.75-4.6-15.06-4.6-4.03,0-8.07.66-12.1,1.98-4.03,1.31-7.54,3.2-10.52,5.66l-6.97-9.21c3.77-3.24,8.33-5.68,13.68-7.3,5.35-1.62,10.83-2.43,16.44-2.43,10,0,17.91,2.5,23.74,7.5,5.83,5,8.75,11.88,8.75,20.65v28.94c0,3.86,1.98,5.79,5.92,5.79,1.4,0,2.63-.22,3.68-.66ZM906.91,95.61c5.22-3.77,8.09-9.82,8.61-18.15h-18.68c-16.31,0-24.47,4.08-24.47,12.23,0,3.6,1.51,6.42,4.54,8.48,3.03,2.06,7.04,3.09,12.03,3.09,6.75,0,12.74-1.88,17.96-5.66Z"/><path d="M1007.86,42.14c5.52,3.29,9.87,7.78,13.02,13.48,3.15,5.7,4.73,12.06,4.73,19.07s-1.58,13.4-4.73,19.14c-3.16,5.74-7.5,10.26-13.02,13.55-5.52,3.29-11.79,4.93-18.81,4.93-5.79,0-10.96-1.12-15.52-3.36-4.56-2.24-8.38-5.37-11.45-9.41v34.73h-12.63V38.92h11.97v11.97c3.07-4.3,6.95-7.65,11.64-10.06,4.69-2.41,10.02-3.62,15.98-3.62,7.02,0,13.29,1.64,18.81,4.93ZM1000.56,97.39c3.81-2.24,6.79-5.33,8.94-9.27,2.15-3.95,3.22-8.42,3.22-13.42s-1.08-9.34-3.22-13.28c-2.15-3.95-5.13-7.04-8.94-9.27-3.82-2.24-8.14-3.35-12.96-3.35s-9.08,1.07-13.02,3.22c-3.95,2.15-7.08,5.19-9.41,9.14-2.32,3.95-3.48,8.46-3.48,13.55s1.16,9.63,3.48,13.62c2.32,3.99,5.46,7.06,9.41,9.21,3.95,2.15,8.29,3.22,13.02,3.22s9.14-1.12,12.96-3.35Z"/><path d="M1113.49,99.56v10.52c-1.58.7-3.64,1.05-6.18,1.05-3.95,0-7.37-1.01-10.26-3.03-2.89-2.01-4.6-4.95-5.13-8.81-2.89,4.21-6.82,7.41-11.78,9.6s-10.37,3.29-16.24,3.29c-7.98,0-14.67-1.93-20.06-5.79-5.39-3.86-8.09-9.29-8.09-16.31s3.09-12.83,9.27-16.9c6.18-4.08,15.37-6.12,27.56-6.12h18.94v-.92c0-5.52-1.86-9.82-5.59-12.89-3.73-3.07-8.75-4.6-15.06-4.6-4.03,0-8.07.66-12.1,1.98-4.03,1.31-7.54,3.2-10.52,5.66l-6.97-9.21c3.77-3.24,8.33-5.68,13.68-7.3,5.35-1.62,10.83-2.43,16.44-2.43,10,0,17.91,2.5,23.74,7.5,5.83,5,8.75,11.88,8.75,20.65v28.94c0,3.86,1.98,5.79,5.92,5.79,1.4,0,2.63-.22,3.68-.66ZM1082.9,95.61c5.22-3.77,8.09-9.82,8.61-18.15h-18.68c-16.31,0-24.47,4.08-24.47,12.23,0,3.6,1.51,6.42,4.54,8.48,3.03,2.06,7.04,3.09,12.03,3.09,6.75,0,12.74-1.88,17.96-5.66Z"/><path d="M1184.91,44.65c5.35,4.95,8.02,11.6,8.02,19.93v46.04h-12.63v-43.67c0-5.61-1.67-10.02-5-13.22-3.33-3.2-8.07-4.8-14.21-4.8-4.38,0-8.28.83-11.7,2.5-3.42,1.67-6.07,3.93-7.96,6.77-1.89,2.85-2.83,6.07-2.83,9.67v42.75h-12.63V38.92h11.97v9.87c2.98-4.03,6.71-6.97,11.18-8.82,4.47-1.84,9.25-2.76,14.34-2.76,8.94,0,16.09,2.48,21.44,7.43Z"/></g></svg>