<?xml version="1.0" encoding="UTF-8"?><svg id="_レイヤー_2" xmlns="http://www.w3.org/2000/svg" xmlns:xlink="http://www.w3.org/1999/xlink" viewBox="0 0 1791.1 87.84"><defs><style>.cls-1{fill:url(#_名称未設定グラデーション_2);}.cls-2{fill:#fff;}.cls-3{fill:url(#_名称未設定グラデーション);}</style><linearGradient id="_名称未設定グラデーション" x1="86.22" y1="2359.71" x2="216.15" y2="2359.71" gradientTransform="translate(0 2423.89) scale(1 -1)" gradientUnits="userSpaceOnUse"><stop offset="0" stop-color="red"/><stop offset=".52" stop-color="#ff9200"/><stop offset="1" stop-color="#3ccbcf"/></linearGradient><linearGradient id="_名称未設定グラデーション_2" x1="13.08" y1="2356.71" x2="13.08" y2="2336.06" gradientTransform="translate(0 2423.89) scale(1 -1)" gradientUnits="userSpaceOnUse"><stop offset=".1" stop-color="red"/><stop offset=".57" stop-color="#ff9200"/><stop offset=".61" stop-color="#f4950b"/><stop offset=".67" stop-color="#d89d28"/><stop offset=".75" stop-color="#aaaa59"/><stop offset=".85" stop-color="#6cbc9b"/><stop offset=".92" stop-color="#3ccbcf"/></linearGradient></defs><g id="_レイヤー_1-2"><g id="_レイヤー_2-2"><path d="M811.56,75.52c-4.83-3.39-10.7-4.88-16.04-4.68-5.4.23-7.82,4.25-7.82,4.25-2.44-4.25-7.25-6.86-14.69-6.8-12.01.14-23.92,5.7-33.37,5.7s-15.67-5.7-15.45-15.81c.38-17.71,15.36-33.69,26.54-40.87,6.44-4.14,11.83-5.36,15.35-4.97,2.57.29,5.66,3.25,3.71,7.63-2.86,6.41-6.82,5.88-6.67,2.81.07-1.98,1.4-3.24,2.4-3.92.63-.44,1.75-.56,2.34-.58.55-.48.99-3.98-3.62-2.82-4.61,1.15-10.16,5.67-15.45,11.52-5.28,5.84-13.51,16.9-15.54,28.51-.95,5.38-.31,15.18,12.43,15.08,10.81-.09,26.76-7.22,41.41-7.09,5.69.05,10.64,1.58,14.5,3.97,3.81,2.34,8.35,5.74,9.97,8.07M815.01,43.38h2.22s-11.1,16.05-17.37,15.32c-3.52-.4-2.49-4.73-2.49-4.73,0,0-4.92,5.77-9.42,4.62-4.09-1.05-1.45-7.87-1.45-7.87-.47.18-9.34,10.19-15.56,7.79-6.51-2.52-3.14-10.88-1.9-13.4,1.05-2.12,2.21-4.2,2.21-4.2,0,0-1,.29-1.62.43s-1.57.33-1.57.33c0,0-3.08,5.01-4.96,7.52-1.88,2.5-9.89,11.11-14.61,9.39s-3.56-8.32-.91-13.56c4.3-8.52,14.5-18.97,20.63-17.41,6.21,1.59,1.08,11.66,1.08,11.66,0,0,1.24.16,4.19-1.86,4.26-2.91,9.88-10.73,15.97-9.82,2.86.43,5.53,3.36,1.89,8.94-1.17,1.78-3.12,3.39-4.63,1.81-.92-.98-.11-2.77.87-4.01,1.38-1.74,3.28-1.5,3.28-1.5,0,0,1.01-2.31-1.54-2.27-2.08.05-7.31,4.87-10.28,9.76-2.72,4.48-6.82,12.11-2.69,13.77,3.78,1.53,10.98-7.03,14.32-11.5,3.33-4.49,10.93-14.66,17.31-15.08,2.18-.14,3.5,1.87,3.5,1.87l.74-1.17h6.37s-12,20.06-12.94,21.58c-.74,1.19-1.72,3.86,1,2.36,2.72-1.51,8.37-8.78,8.37-8.78M765.58,41.35c-.1-.03-1.72-.49-3.28-1.49-1.56-1.01-2.28-2.49-2.34-2.6-.07-.1-.12-.02-.18.06-.07.08-.41.52-2.67,3.85-2.27,3.34-5.64,10.17-2.48,11.34,2.02.75,5.41-2.8,7.24-5.15,1.7-2.18,3.73-5.53,3.82-5.72.08-.2,0-.25-.1-.3M768.1,30.69c-1.67-1.27-5.92,1.7-5.94,4.71-.03,3.1,3.85,3.98,4.33,4,0,0,.43.12.61-.25.11-.23.63-1.2,1.22-2.73.58-1.54,1.33-4.55-.22-5.73M800.57,47.39c2.57-3.52,9.67-15.89,9.67-15.89,0,0-.13-.87-.96-.91-.98-.04-2.61.29-5.87,4.36s-5.78,7.33-7.61,10.7c-2.02,3.68-2.9,6.28-1.74,6.98.31.2.82.22,1.21.13.76-.18,1.75-.94,3.1-2.51.63-.73,1.36-1.71,2.2-2.86M829.21,28.24h-6.05l-3.42,5.54h6.05s3.42-5.54,3.42-5.54ZM918.51,18.31c-4.47,2.87-10.66,5.48-16.62,4.92-1.5,1.56-3.11,3.35-4.74,5.33,10.34,2.03,19.37-4.36,24.18-9.81,2.99-3.4,4.47-6.44,4.47-6.44,0,0-2.86,3.16-7.29,6.01M900.81,65.24c-.85,1.36-1.82,4,1.01,2.35,3.43-2,8.34-9.44,8.34-9.44h2.22s-2.92,4.63-6.73,8.85c-3.5,3.87-7.76,7.38-10.76,7.04-3.51-.42-2.41-5.02-2.41-5.02,0,0-5.03,5.34-8.49,4.97-4.67-.53-3.25-6.32-3.25-6.32,0,0-5.29,6.52-8.9,6.32-5.65-.34-4.24-7.25-2.67-12.07.84-2.59,1.63-4.63,1.63-4.63,0,0-.57.15-1.78.32-.62.09-1.77.16-1.77.16,0,0-2.35,4.16-4.23,6.67-1.89,2.51-9.89,11.12-14.61,9.38-4.36-1.58-2.92-8.27-.39-13.56,3.71-7.73,14.12-18.85,20.12-17.39,6.22,1.51.14,12.88.14,12.88,0,0,0,.04.06.06.13.06.45.09,1.2-.06,1.19-.23,2.28-.68,2.28-.68,0,0,6.25-13.11,13.17-21.69,6.91-8.58,20.71-23.36,26.12-19.79,1.33.87.73,3.9-1.05,7.58-.79.25-1.61.47-2.45.64,1.2-2.16,1.99-3.99,2.22-5.27.81-4.43-9.54,4.91-16.93,14.97-7.38,10.06-11.82,19.17-11.82,19.17,0,0,1.5-.85,3.82-2.72,2.43-1.95,5.76-5.02,9.38-8.77,2.45-2.52,5.31-5.69,8-9.23.79-.04,1.58-.12,2.35-.24-2.99,4.03-6.14,7.72-8.81,10.42-2.94,2.98-6.13,6.2-8.92,8.53-4.41,3.71-7.82,5.82-7.82,5.82,0,0-6.47,13.03-2.96,13.87,2.07.49,6.15-5.8,6.15-5.8,0,0,5.32-8.13,8.54-11.79,4.37-4.98,8.15-7.87,11.92-7.92,2.2-.05,3.49,2.3,3.49,2.3l1.03-1.6h6.38s-11.86,20.16-12.82,21.68M865.04,57.29c-.12-.04-1.5-.67-2.93-1.86-1.43-1.19-2.15-2.56-2.21-2.67-.06-.1-.12-.02-.19.06-.06.08-.32.31-2.59,3.65-2.27,3.33-5.76,10.23-2.6,11.39,2.02.74,5.39-2.79,7.22-5.14,1.7-2.18,3.3-4.95,3.39-5.16.09-.19,0-.24-.1-.29M868.24,51.66c.59-1.53,1.33-4.55-.23-5.72-1.66-1.27-5.92,1.69-5.94,4.71-.02,3.09,3,4.49,3.73,4.68.42.12.55.1.76-.23.12-.22,1.1-1.9,1.68-3.44M904.78,47.41c.14-.23.18-.43.18-.43,0,0-.1-.87-.94-.91-.98-.04-2.32.15-5.83,4.04-3.5,3.88-5.63,7.24-7.48,10.62-2.01,3.67-2.83,6.41-1.66,7.12.32.2.82.22,1.22.12.78-.2,1.66-.93,3.02-2.49.64-.73,1.33-1.77,2.17-2.92,2.32-3.16,8.16-13.14,9.31-15.15M918.51,18.31c-4.47,2.87-10.66,5.48-16.62,4.92-1.5,1.56-3.11,3.35-4.74,5.33,10.34,2.03,19.37-4.36,24.18-9.81,2.99-3.4,4.47-6.44,4.47-6.44,0,0-2.86,3.16-7.29,6.01M889.5,25.8c-4.89-2.49-8.46-5.55-12.18-7.47-3.55-1.82-5.83-2.57-8.7-2.19-.48.06-1.18.3-1.18.3,0,0,1.49,5.03-4.4,13.5-5.94,8.58-11.33,8.54-12.86,6.16-1.61-2.49.46-7.56,3.92-12.08,3.63-4.72,10-8.64,10-8.64,0,0-2.02-1.24-7.01,1.59-4.86,2.76-13.26,9.31-21.02,20.38-7.75,11.05-9.31,17.14-10.41,21.94-1.12,4.78-.09,9.92,5.21,9.92s11.49-8.11,13.23-10.93c3.24-5.25,5.35-13.3.95-12.19-2.18.55-3.95,2.97-5.04,5.27-1.15,2.38-1.6,4.66-1.6,4.66,0,0-1.84.66-4.31,2.5-2.47,1.85-4.08,3.61-4.08,3.61,0,0,.02-3.83,3.08-10.03,3.04-6.2,8.64-9.03,11.82-9.3,2.87-.24,6.58,2.19,3.44,11.16-3.14,8.96-12.45,19.82-22.21,19.98-9.03.12-14.93-11.39-2.38-31.47,13.87-22.22,30.17-29.03,35.46-29.8,5.29-.76,7.01,1.57,7.01,1.57,0,0,4.43-2.05,10.05-1.67,6.48.44,11.48,5.01,18.06,8.22-1.73,1.67-3.36,3.39-4.83,4.99M865.43,17.09s-3.77,1.51-8.17,6.36c-4.42,4.86-6.95,10.3-5.06,11.73.73.56,2.4.65,5.45-2.1,2.38-2.13,4.81-4.93,6.44-8.94,1.97-4.8,1.34-7,1.34-7.06"/><path d="M973.58,62.29l-6.22,5.91v6.91h-3.45v-24.87h3.45v13.75l14.54-13.75h4.35l-10.22,9.71,10.88,15.16h-4.21l-9.12-12.81h0Z"/><path d="M992.83,74.24c-1.53-.87-2.73-2.06-3.59-3.56s-1.3-3.17-1.3-5.01.43-3.51,1.3-5.01c.86-1.5,2.06-2.68,3.59-3.54s3.28-1.3,5.23-1.3,3.7.43,5.23,1.3,2.73,2.04,3.59,3.54,1.3,3.17,1.3,5.01-.43,3.51-1.3,5.01-2.06,2.68-3.59,3.56c-1.53.88-3.28,1.31-5.23,1.31s-3.7-.44-5.23-1.31ZM1001.48,71.63c1.04-.59,1.85-1.4,2.43-2.45.59-1.05.88-2.22.88-3.51s-.29-2.45-.88-3.49-1.4-1.85-2.43-2.44c-1.04-.59-2.18-.88-3.42-.88s-2.38.29-3.42.88-1.85,1.4-2.44,2.44-.88,2.2-.88,3.49.29,2.46.88,3.51,1.4,1.87,2.44,2.45c1.04.59,2.18.88,3.42.88s2.38-.29,3.42-.88Z"/><path d="M1023.97,56.21v3.11c-.64-.14-1.29-.21-1.93-.21-1.82,0-3.31.49-4.47,1.47-1.16.98-1.74,2.35-1.74,4.13v10.4h-3.32v-18.82h3.14v2.94c.69-1.11,1.63-1.92,2.82-2.44s2.39-.78,3.61-.78c.71,0,1.35.07,1.9.21h-.01Z"/><path d="M1044.21,66.95h-15.99c.25,1.73,1.01,3.1,2.28,4.11s2.87,1.52,4.8,1.52c2.42,0,4.38-.75,5.87-2.25l1.97,2.28c-.78.88-1.85,1.58-3.19,2.12s-2.91.81-4.68.81c-2.1,0-3.94-.43-5.53-1.28-1.59-.85-2.81-2.03-3.66-3.52s-1.28-3.19-1.28-5.08.41-3.48,1.24-4.99,1.99-2.69,3.47-3.56,3.18-1.3,5.1-1.3,3.67.44,5.15,1.33c1.47.89,2.61,2.08,3.4,3.59s1.19,3.17,1.19,4.99c0,.37-.05.77-.14,1.21v.02ZM1030.39,60.25c-1.15.97-1.88,2.29-2.18,3.97h12.78c-.23-1.59-.92-2.89-2.06-3.9-1.14-1.01-2.59-1.52-4.33-1.52s-3.06.48-4.21,1.45Z"/><path d="M1066.97,72.2v2.76c-.41.18-.96.28-1.62.28-1.04,0-1.93-.26-2.69-.79-.76-.53-1.21-1.3-1.35-2.31-.76,1.1-1.79,1.95-3.09,2.52s-2.72.86-4.27.86c-2.1,0-3.85-.51-5.27-1.52-1.42-1.01-2.12-2.44-2.12-4.28s.81-3.37,2.43-4.44,4.04-1.61,7.24-1.61h4.97v-.24c0-1.45-.49-2.58-1.47-3.38-.98-.81-2.3-1.21-3.95-1.21-1.06,0-2.12.17-3.18.52-1.06.35-1.98.84-2.76,1.49l-1.83-2.42c.99-.85,2.19-1.49,3.59-1.92,1.4-.43,2.84-.64,4.32-.64,2.63,0,4.7.66,6.23,1.97s2.3,3.12,2.3,5.42v7.6c0,1.01.52,1.52,1.55,1.52.37,0,.69-.06.97-.17h0ZM1058.94,71.17c1.37-.99,2.12-2.58,2.26-4.77h-4.9c-4.28,0-6.42,1.07-6.42,3.21,0,.94.4,1.69,1.19,2.23s1.85.81,3.16.81c1.77,0,3.34-.5,4.72-1.49h0Z"/><path d="M953.91,74.43v.31h-4.1l-2.82-2.48c-2.24,1.95-4.95,2.92-8.14,2.92-1.79,0-3.37-.3-4.75-.9s-2.45-1.43-3.2-2.49c-.76-1.06-1.14-2.25-1.14-3.56,0-1.45.46-2.69,1.37-3.73.92-1.04,2.23-1.94,3.95-2.71-.97-.88-1.73-1.79-2.27-2.73s-.81-1.95-.81-3.04c0-1.17.32-2.23.95-3.17s1.51-1.67,2.63-2.19,2.38-.78,3.78-.78,2.62.25,3.71.76,1.95,1.2,2.56,2.09c.61.88.92,1.88.92,2.98,0,2.74-2.05,4.98-6.14,6.75l6.31,5.59c.59-.9,1.04-1.87,1.36-2.9s.5-2.04.54-3.03h3.15c-.05,1.36-.31,2.73-.78,4.12-.47,1.39-1.14,2.67-2,3.85l4.92,4.34h0ZM944.72,70.3l-7.56-6.68c-1.38.61-2.4,1.28-3.07,2.02-.67.73-1,1.55-1,2.46,0,1.24.55,2.25,1.64,3.02,1.1.77,2.51,1.15,4.26,1.15,2.21,0,4.13-.66,5.73-1.97ZM936.43,53.61c-.76.63-1.14,1.44-1.14,2.41,0,.68.21,1.36.64,2.04s1.16,1.48,2.2,2.41l.1.1c1.81-.7,3.11-1.42,3.92-2.17.8-.75,1.2-1.57,1.2-2.48s-.37-1.73-1.12-2.34-1.71-.92-2.88-.92-2.18.32-2.93.95h.01Z"/><path d="M946.05,16.46v17.2c0,1.68-.35,3.13-1.05,4.35-.7,1.22-1.69,2.15-2.95,2.8-1.27.64-2.71.97-4.32.97-2.46,0-4.47-.73-6.01-2.18-1.54-1.45-2.33-3.51-2.35-6.18h3.39c.07,1.87.56,3.2,1.49,4.01.92.81,2.07,1.21,3.45,1.21,1.52,0,2.72-.44,3.59-1.33s1.31-2.13,1.31-3.71v-17.13h3.45,0Z"/><path d="M970.37,38.43v2.76c-.41.18-.96.28-1.62.28-1.04,0-1.93-.26-2.69-.79-.76-.53-1.21-1.3-1.35-2.31-.76,1.11-1.79,1.95-3.09,2.52s-2.72.86-4.27.86c-2.1,0-3.85-.51-5.27-1.52-1.42-1.01-2.12-2.44-2.12-4.28s.81-3.37,2.43-4.44c1.62-1.07,4.04-1.61,7.24-1.61h4.97v-.24c0-1.45-.49-2.58-1.47-3.38-.98-.81-2.3-1.21-3.95-1.21-1.06,0-2.12.17-3.18.52-1.06.34-1.98.84-2.76,1.49l-1.83-2.42c.99-.85,2.19-1.49,3.59-1.92s2.84-.64,4.32-.64c2.63,0,4.7.66,6.23,1.97s2.3,3.12,2.3,5.42v7.6c0,1.01.52,1.52,1.55,1.52.37,0,.69-.06.97-.17h0ZM962.34,37.39c1.37-.99,2.12-2.58,2.26-4.77h-4.9c-4.28,0-6.42,1.07-6.42,3.21,0,.94.4,1.69,1.19,2.23s1.85.81,3.16.81c1.77,0,3.34-.49,4.72-1.49h-.01Z"/><path d="M988.85,23.35c1.45.86,2.59,2.04,3.42,3.54.83,1.5,1.24,3.17,1.24,5.01s-.41,3.52-1.24,5.03c-.83,1.51-1.97,2.69-3.42,3.56-1.45.86-3.1,1.3-4.94,1.3-1.52,0-2.88-.29-4.08-.88s-2.2-1.41-3.01-2.47v9.12h-3.32v-25.04h3.14v3.14c.81-1.13,1.82-2.01,3.06-2.64,1.23-.63,2.63-.95,4.2-.95,1.84,0,3.49.43,4.94,1.3v-.02ZM986.93,37.86c1-.59,1.78-1.4,2.35-2.44.56-1.04.85-2.21.85-3.52s-.28-2.45-.85-3.49-1.35-1.85-2.35-2.44-2.14-.88-3.4-.88-2.38.28-3.42.85-1.86,1.36-2.47,2.4-.91,2.22-.91,3.56.31,2.53.91,3.58c.61,1.05,1.43,1.85,2.47,2.42s2.18.85,3.42.85,2.4-.29,3.4-.88h0Z"/><path d="M1016.58,38.43v2.76c-.41.18-.96.28-1.62.28-1.04,0-1.93-.26-2.69-.79-.76-.53-1.21-1.3-1.35-2.31-.76,1.11-1.79,1.95-3.09,2.52s-2.72.86-4.27.86c-2.1,0-3.85-.51-5.27-1.52-1.42-1.01-2.12-2.44-2.12-4.28s.81-3.37,2.43-4.44c1.62-1.07,4.04-1.61,7.24-1.61h4.97v-.24c0-1.45-.49-2.58-1.47-3.38-.98-.81-2.3-1.21-3.95-1.21-1.06,0-2.12.17-3.18.52-1.06.34-1.98.84-2.76,1.49l-1.83-2.42c.99-.85,2.19-1.49,3.59-1.92s2.84-.64,4.32-.64c2.63,0,4.7.66,6.23,1.97s2.3,3.12,2.3,5.42v7.6c0,1.01.52,1.52,1.55,1.52.37,0,.69-.06.97-.17h0ZM1008.55,37.39c1.37-.99,2.12-2.58,2.26-4.77h-4.9c-4.28,0-6.42,1.07-6.42,3.21,0,.94.4,1.69,1.19,2.23.79.54,1.85.81,3.16.81,1.77,0,3.34-.49,4.72-1.49h0Z"/><path d="M1035.34,24.01c1.4,1.3,2.11,3.04,2.11,5.23v12.09h-3.32v-11.47c0-1.47-.44-2.63-1.31-3.47-.88-.84-2.12-1.26-3.73-1.26-1.15,0-2.18.22-3.07.66s-1.6,1.03-2.09,1.78c-.5.75-.74,1.6-.74,2.54v11.23h-3.32v-18.82h3.14v2.59c.78-1.06,1.76-1.83,2.94-2.32,1.17-.48,2.43-.72,3.77-.72,2.35,0,4.22.65,5.63,1.95h-.01Z"/><path d="M41.36,38.85c-.06-.06-.09-.14-.09-.24v-.41c0-.16.08-.28.24-.37l.24-.12c.37-.18.66-.39.87-.63s.36-.55.45-.93.14-.86.14-1.45V13.89c0-.59-.05-1.07-.14-1.45s-.24-.69-.45-.93-.5-.45-.87-.63l-.24-.12c-.16-.08-.24-.2-.24-.37v-.41c0-.1.03-.18.09-.24.06-.06.14-.09.24-.09h6.34c.1,0,.19.03.27.08.07.06.16.16.26.32l11.51,18.62c.04.06.08.11.1.13.03.02.06.03.1.03s.07-.01.09-.04.03-.07.03-.12v-14.8c0-.59-.05-1.07-.14-1.45s-.24-.69-.45-.93-.5-.45-.87-.63l-.24-.12c-.16-.08-.24-.2-.24-.37v-.41c0-.1.03-.18.09-.24s.14-.09.24-.09h5.37c.1,0,.18.03.24.09.06.06.09.14.09.24v.41c0,.16-.08.28-.24.37l-.24.12c-.37.18-.66.39-.87.63s-.36.55-.45.93-.14.86-.14,1.45v24.72c0,.1-.03.18-.09.24s-.14.09-.24.09h-1.46c-.11,0-.19-.03-.26-.08s-.15-.15-.23-.29l-14.48-23.46c-.04-.06-.07-.11-.1-.13s-.06-.03-.1-.03-.07.01-.09.04c-.02.02-.03.07-.03.13v19.6c0,.59.05,1.07.14,1.45s.24.69.45.93.5.45.87.63l.24.12c.16.08.24.2.24.37v.41c0,.1-.03.18-.09.24s-.14.09-.24.09h-5.37c-.1,0-.18-.03-.24-.09h0Z"/><path d="M70.66,37.87c-1.63-.93-2.88-2.25-3.75-3.98-.87-1.72-1.31-3.76-1.31-6.1s.4-4.41,1.2-6.13,1.95-3.05,3.44-3.96c1.49-.92,3.25-1.38,5.27-1.38s3.77.46,5.25,1.38,2.61,2.24,3.41,3.96c.79,1.72,1.19,3.77,1.19,6.13v.28c0,.1-.03.18-.09.24s-.14.09-.24.09h-13.74c-.1,0-.18.03-.24.09-.06.06-.09.14-.09.24.07,1.97.33,3.59.78,4.87.45,1.28,1.11,2.23,1.96,2.85.85.63,1.92.94,3.2.94,1.13,0,2.12-.24,2.98-.73.86-.49,1.53-1.19,2-2.11.48-.92.71-2,.71-3.26,0-.1.03-.18.09-.24s.14-.09.24-.09h1.3c.1,0,.18.03.24.09.06.06.09.14.09.24,0,1.64-.33,3.06-.98,4.26s-1.59,2.12-2.81,2.76-2.67.96-4.34.96c-2.21,0-4.12-.46-5.75-1.39h-.01ZM79.98,26.53c.06-.06.09-.14.09-.24-.08-1.87-.3-3.42-.66-4.64s-.86-2.13-1.5-2.72c-.64-.6-1.44-.89-2.39-.89s-1.75.3-2.39.89c-.64.6-1.14,1.5-1.5,2.72s-.58,2.76-.66,4.64c0,.1.03.18.09.24s.14.09.24.09h8.46c.1,0,.18-.03.24-.09h-.02Z"/><path d="M85.61,38.85c-.06-.06-.09-.14-.09-.24v-.37c0-.16.08-.28.24-.37l.24-.12c.29-.15.55-.32.78-.51.22-.19.45-.43.67-.72s.51-.69.87-1.21l5.04-7.28c.05-.06.08-.13.08-.18,0-.03,0-.07-.02-.11s-.03-.08-.05-.12l-4.19-7.36c-.28-.49-.53-.89-.74-1.18-.22-.3-.44-.54-.66-.74-.23-.2-.49-.37-.79-.52l-.24-.12c-.16-.08-.24-.2-.24-.37v-.37c0-.1.03-.18.09-.24s.14-.09.24-.09h8.74c.1,0,.18.03.24.09.06.06.09.14.09.24v.37c0,.16-.08.28-.24.37l-.24.12c-.39.19-.69.39-.88.62-.19.22-.29.47-.29.75,0,.31.12.67.36,1.07l2.32,4.07c.04.06.08.11.1.13.03.02.06.03.1.03s.07-.01.1-.03.06-.07.1-.13l2.48-4.07c.25-.41.38-.76.38-1.07,0-.28-.1-.53-.3-.75s-.5-.43-.89-.62l-.24-.12c-.16-.08-.24-.2-.24-.37v-.37c0-.1.03-.18.09-.24s.14-.09.24-.09h5.73c.1,0,.18.03.24.09.06.06.09.14.09.24v.37c0,.16-.08.28-.24.37l-.24.12c-.3.15-.56.32-.78.51s-.44.44-.65.73c-.21.29-.47.69-.77,1.2l-3.82,6.22c-.04.08-.06.15-.06.2s.02.12.06.2l4.8,8.42c.28.49.53.89.74,1.18.22.3.44.54.66.74.23.2.49.37.79.52l.24.12c.16.08.24.2.24.37v.37c0,.1-.03.18-.09.24s-.14.09-.24.09h-8.74c-.1,0-.18-.03-.24-.09-.06-.06-.09-.14-.09-.24v-.37c0-.16.08-.28.24-.37l.24-.12c.39-.19.69-.39.88-.62.19-.22.29-.47.29-.75,0-.31-.12-.67-.36-1.07l-2.97-5.21c-.04-.06-.07-.11-.1-.13-.03-.02-.06-.03-.1-.03s-.07.01-.1.03-.06.07-.1.13l-3.58,5.21c-.3.43-.45.81-.45,1.14,0,.26.09.5.28.71s.47.41.85.59l.24.12c.16.08.24.2.24.37v.37c0,.1-.03.18-.09.24s-.14.09-.24.09h-5.82c-.1,0-.18-.03-.24-.09h.01Z"/><path d="M113.2,38.56c-.87-.47-1.54-1.14-2.01-2.02s-.7-1.91-.7-3.09v-13.87c0-.37-.1-.65-.29-.84s-.48-.29-.84-.29h-1.3c-.1,0-.18-.03-.24-.09-.06-.06-.09-.14-.09-.24v-1.14c0-.1.03-.18.09-.24s.14-.09.24-.09h2.11c.1,0,.18-.03.24-.09.06-.06.09-.14.09-.24v-4.55c0-.1.03-.18.09-.24s.14-.09.24-.09h4.15c.1,0,.18.03.24.09s.09.14.09.24v4.55c0,.1.03.18.09.24s.14.09.24.09h4.8c.1,0,.18.03.24.09.06.06.09.14.09.24v1.14c0,.1-.03.18-.09.24s-.14.09-.24.09h-4.8c-.1,0-.18.03-.24.09s-.09.14-.09.24v14.68c0,.96.06,1.72.18,2.3.12.57.3.99.56,1.25.25.26.59.39,1.02.39.39,0,.72-.11,1-.34s.48-.56.62-1,.21-.97.21-1.59v-2.36c0-.1.03-.18.09-.24s.14-.09.24-.09h1.22c.1,0,.18.03.24.09.06.06.09.14.09.24v2.36c0,1.58-.38,2.78-1.14,3.59s-1.87,1.21-3.34,1.21c-1.17,0-2.19-.24-3.06-.71h-.04Z"/><path d="M134.84,37.49c-1.94-1.18-3.43-2.9-4.46-5.14-1.03-2.25-1.55-4.93-1.55-8.04s.51-5.81,1.52-8.05c1.01-2.24,2.48-3.96,4.39-5.14,1.91-1.18,4.2-1.77,6.86-1.77.88,0,1.69.06,2.41.18.73.12,1.33.26,1.82.42s1,.34,1.54.56c.32.13.56.21.72.27s.3.08.41.08c.17,0,.3-.03.41-.1.11-.07.2-.18.28-.34l.24-.49c.04-.08.09-.14.16-.18s.15-.06.25-.06h1.1c.1,0,.18.03.24.09s.09.14.09.24v8.21c0,.1-.03.18-.09.24s-.14.09-.24.09h-1.06c-.1,0-.18-.02-.25-.07s-.12-.13-.16-.26c-.28-.9-.61-1.76-.98-2.56-.69-1.49-1.58-2.61-2.67-3.34-1.09-.73-2.4-1.1-3.91-1.1-1.71,0-3.13.47-4.24,1.42-1.12.95-1.95,2.39-2.5,4.32-.55,1.93-.82,4.38-.82,7.36s.28,5.4.84,7.32,1.41,3.35,2.55,4.29,2.59,1.41,4.34,1.41c1.49,0,2.79-.35,3.91-1.05,1.12-.7,1.98-1.69,2.58-2.98s.91-2.79.91-4.51c0-.1.03-.18.09-.24s.14-.09.24-.09h1.38c.1,0,.18.03.24.09.06.06.09.14.09.24,0,2.23-.38,4.13-1.13,5.7-.76,1.57-1.86,2.76-3.32,3.57s-3.23,1.22-5.3,1.22c-2.67,0-4.98-.59-6.92-1.78v-.03Z"/><path d="M153.11,38.85c-.06-.06-.09-.14-.09-.24v-.37c0-.16.08-.28.24-.37l.24-.12c.34-.17.6-.37.78-.6s.32-.54.4-.92c.08-.38.12-.87.12-1.49V12.55c0-.62-.04-1.11-.12-1.49s-.21-.68-.4-.92c-.18-.23-.44-.43-.78-.6l-.24-.12c-.16-.08-.24-.2-.24-.37v-.37c0-.1.03-.18.09-.24s.14-.09.24-.09h5.94c.1,0,.18.03.24.09.06.06.09.14.09.24v10.69c0,.14.03.2.08.2.02,0,.04-.01.07-.04s.06-.07.1-.13c.43-.65.97-1.2,1.61-1.66s1.37-.82,2.17-1.06,1.66-.37,2.56-.37c2.06,0,3.61.65,4.64,1.94s1.55,3.25,1.55,5.87v10.61c0,.62.04,1.11.12,1.49s.21.68.4.92c.18.23.44.43.78.6l.24.12c.16.08.24.2.24.37v.37c0,.1-.03.18-.09.24s-.14.09-.24.09h-7.73c-.1,0-.18-.03-.24-.09s-.09-.14-.09-.24v-.37c0-.16.08-.28.24-.37l.24-.12c.34-.17.6-.37.78-.6s.32-.54.4-.92c.08-.38.12-.87.12-1.49v-11.26c0-1.09-.11-1.99-.33-2.69s-.56-1.24-1.02-1.58c-.46-.35-1.04-.52-1.74-.52-.6,0-1.2.12-1.78.36s-1.13.58-1.64,1.03-.95.97-1.33,1.58c-.08.16-.12.3-.12.41v12.69c0,.62.04,1.11.12,1.49s.21.68.4.92c.18.23.44.43.78.6l.24.12c.16.08.24.2.24.37v.37c0,.1-.03.18-.09.24s-.14.09-.24.09h-7.73c-.1,0-.18-.03-.24-.09h.02Z"/><path d="M178.35,38.5c-.98-.51-1.74-1.22-2.28-2.15-.54-.92-.81-1.99-.81-3.19s.27-2.29.82-3.25,1.36-1.79,2.43-2.47,2.39-1.22,3.94-1.6l5.25-1.3c.08-.02.14-.06.18-.12.04-.06.06-.13.06-.21v-.57c0-1.87-.32-3.26-.96-4.17s-1.62-1.36-2.94-1.36c-.78,0-1.47.15-2.07.45-.6.3-1.16.78-1.68,1.43-.52.65-1.03,1.53-1.53,2.63-.13.27-.22.48-.28.64-.06.15-.13.36-.21.62-.04.13-.09.22-.16.26s-.15.07-.25.07h-.98c-.1,0-.18-.03-.24-.09-.06-.06-.09-.14-.09-.24v-6.91c0-.1.03-.18.09-.24s.14-.09.24-.09h1.02c.1,0,.18.02.25.06s.12.1.16.18l.24.49c.13.3.33.45.61.45.12,0,.24-.03.39-.09.14-.06.34-.16.59-.29.41-.22.79-.4,1.14-.55s.79-.28,1.32-.4c.53-.12,1.12-.17,1.77-.17,1.78,0,3.3.32,4.55.95s2.2,1.56,2.85,2.77c.65,1.21.98,2.69.98,4.41v10.29c0,.62.04,1.11.12,1.49s.21.68.4.92c.18.23.44.43.78.6l.24.12c.16.08.24.2.24.37v.37c0,.1-.03.18-.09.24s-.14.09-.24.09h-5.77c-.1,0-.18-.03-.24-.09-.06-.06-.09-.14-.09-.24v-2.56c0-.14-.03-.2-.08-.2-.02,0-.04,0-.07.04-.02.02-.06.07-.1.13-.7,1.05-1.57,1.85-2.61,2.41s-2.22.84-3.53.84-2.4-.25-3.38-.76h.02ZM184.92,36.54c.56-.24,1.09-.58,1.59-1.03.5-.45.94-.97,1.32-1.58.08-.16.12-.3.12-.41v-6.91c0-.08-.02-.15-.05-.19s-.08-.06-.15-.06c-.03,0-.06,0-.09.01l-3.17.81c-.98.24-1.78.59-2.39,1.05s-1.07,1.04-1.36,1.75-.44,1.58-.44,2.6c0,.92.11,1.7.34,2.34s.57,1.13,1.01,1.47c.44.33.98.5,1.62.5.54,0,1.09-.12,1.65-.36h0Z"/><path d="M195.06,46.17c-.06-.06-.09-.14-.09-.24v-.37c0-.16.08-.28.24-.37l.24-.12c.34-.17.6-.37.78-.6s.32-.54.4-.92c.08-.38.12-.88.12-1.49v-21.23c0-.62-.04-1.11-.12-1.49s-.21-.68-.4-.92c-.18-.23-.44-.43-.78-.6l-.24-.12c-.16-.08-.24-.2-.24-.37v-.37c0-.1.03-.18.09-.24s.14-.09.24-.09h5.77c.1,0,.18.03.24.09s.09.14.09.24v2.56c0,.14.03.2.08.2.02,0,.04-.01.07-.04.02-.02.06-.07.1-.13.46-.68,1.01-1.27,1.65-1.76.64-.49,1.35-.86,2.12-1.11s1.58-.38,2.41-.38c1.75,0,3.32.49,4.72,1.47s2.51,2.34,3.31,4.08,1.2,3.71,1.2,5.92-.4,4.18-1.2,5.92c-.8,1.74-1.9,3.1-3.31,4.08-1.4.98-2.98,1.47-4.72,1.47-.82,0-1.61-.12-2.37-.37s-1.45-.6-2.07-1.06c-.62-.46-1.15-1.02-1.58-1.66-.04-.06-.07-.1-.1-.13-.02-.02-.05-.04-.07-.04-.05,0-.08.07-.08.2v5.86c0,.62.04,1.11.12,1.49s.21.68.4.92c.18.23.44.43.78.6l.24.12c.16.08.24.2.24.37v.37c0,.1-.03.18-.09.24s-.14.09-.24.09h-7.73c-.1,0-.18-.03-.24-.09l.02.02ZM209.26,35.82c.79-.72,1.39-1.77,1.8-3.13.42-1.37.63-3,.63-4.89s-.21-3.53-.63-4.9c-.42-1.37-1.02-2.41-1.8-3.13-.79-.72-1.73-1.08-2.82-1.08-.63,0-1.23.12-1.82.36-.58.24-1.13.58-1.62,1.02-.5.44-.94.97-1.32,1.59-.08.16-.12.3-.12.41v11.47c0,.11.04.24.12.41.38.61.82,1.14,1.32,1.59.5.44,1.04.79,1.62,1.02.58.24,1.19.36,1.82.36,1.09,0,2.03-.36,2.82-1.08v-.02Z"/><path d="M222.74,38.56c-.87-.47-1.54-1.14-2.01-2.02s-.7-1.91-.7-3.09v-13.87c0-.37-.1-.65-.29-.84s-.48-.29-.84-.29h-1.3c-.1,0-.18-.03-.24-.09s-.09-.14-.09-.24v-1.14c0-.1.03-.18.09-.24s.14-.09.24-.09h2.11c.1,0,.18-.03.24-.09s.09-.14.09-.24v-4.55c0-.1.03-.18.09-.24s.14-.09.24-.09h4.15c.1,0,.18.03.24.09s.09.14.09.24v4.55c0,.1.03.18.09.24s.14.09.24.09h4.8c.1,0,.18.03.24.09s.09.14.09.24v1.14c0,.1-.03.18-.09.24s-.14.09-.24.09h-4.8c-.1,0-.18.03-.24.09s-.09.14-.09.24v14.68c0,.96.06,1.72.18,2.3.12.57.3.99.56,1.25.25.26.59.39,1.02.39.39,0,.72-.11,1-.34s.48-.56.62-1,.21-.97.21-1.59v-2.36c0-.1.03-.18.09-.24s.14-.09.24-.09h1.22c.1,0,.18.03.24.09s.09.14.09.24v2.36c0,1.58-.38,2.78-1.14,3.59s-1.87,1.21-3.34,1.21c-1.17,0-2.19-.24-3.06-.71h-.04Z"/><path d="M236.55,37.87c-1.63-.93-2.88-2.25-3.75-3.98s-1.31-3.76-1.31-6.1.4-4.41,1.2-6.13c.8-1.72,1.95-3.05,3.44-3.96,1.49-.92,3.25-1.38,5.27-1.38s3.77.46,5.25,1.38,2.61,2.24,3.41,3.96c.79,1.72,1.19,3.77,1.19,6.13v.28c0,.1-.03.18-.09.24s-.14.09-.24.09h-13.74c-.1,0-.18.03-.24.09s-.09.14-.09.24c.07,1.97.33,3.59.78,4.87.45,1.28,1.11,2.23,1.96,2.85.85.63,1.92.94,3.2.94,1.13,0,2.12-.24,2.98-.73.86-.49,1.53-1.19,2-2.11.48-.92.71-2,.71-3.26,0-.1.03-.18.09-.24s.14-.09.24-.09h1.3c.1,0,.18.03.24.09s.09.14.09.24c0,1.64-.33,3.06-.98,4.26-.65,1.2-1.59,2.12-2.81,2.76s-2.67.96-4.34.96c-2.21,0-4.12-.46-5.75-1.39h-.01ZM245.87,26.53c.06-.06.09-.14.09-.24-.08-1.87-.3-3.42-.66-4.64-.36-1.22-.86-2.13-1.5-2.72-.64-.6-1.44-.89-2.39-.89s-1.75.3-2.39.89c-.64.6-1.14,1.5-1.5,2.72s-.58,2.76-.66,4.64c0,.1.03.18.09.24s.14.09.24.09h8.46c.1,0,.18-.03.24-.09h-.02Z"/><path d="M252.27,38.85c-.06-.06-.09-.14-.09-.24v-.37c0-.16.08-.28.24-.37l.24-.12c.34-.17.6-.37.78-.6s.32-.54.4-.92c.08-.38.12-.87.12-1.49v-13.91c0-.62-.04-1.11-.12-1.49s-.21-.68-.4-.92c-.18-.23-.44-.43-.78-.6l-.24-.12c-.16-.08-.24-.2-.24-.37v-.37c0-.1.03-.18.09-.24s.14-.09.24-.09h5.69c.1,0,.18.03.24.09s.09.14.09.24v1.83c0,.14.03.2.08.2.02,0,.04-.01.07-.04s.06-.07.1-.13c.54-.81,1.08-1.4,1.63-1.78.55-.38,1.16-.57,1.82-.57.35,0,.68.05.98.16.3.11.57.23.79.37.22.14.46.3.71.49.18.13.31.22.39.26s.17.06.26.06c.12,0,.21-.04.28-.11.07-.08.14-.2.2-.37l.16-.45c.02-.07.06-.13.12-.18.05-.04.14-.07.25-.07h1.02c.1,0,.18.03.24.09s.09.14.09.24v6.91c0,.1-.03.18-.09.24s-.14.09-.24.09h-.98c-.1,0-.18-.02-.25-.07-.07-.04-.12-.13-.16-.26-.07-.22-.13-.42-.2-.59-.06-.17-.13-.36-.21-.56l-.04-.11c-.5-1.32-1.05-2.31-1.65-2.96s-1.23-.98-1.89-.98c-.37,0-.74.1-1.12.3-.38.2-.74.49-1.09.86s-.66.81-.92,1.32c-.08.16-.12.3-.12.41v13.18c0,.62.04,1.11.12,1.49s.21.68.4.92c.18.23.44.43.78.6l.24.12c.16.08.24.2.24.37v.37c0,.1-.03.18-.09.24s-.14.09-.24.09h-7.73c-.1,0-.18-.03-.24-.09h.03Z"/><path d="M46.3,78.22c-1.6-.93-2.83-2.25-3.69-3.98-.86-1.72-1.29-3.76-1.29-6.1s.43-4.37,1.29-6.1c.86-1.72,2.09-3.05,3.69-3.98,1.6-.93,3.49-1.39,5.67-1.39s4.07.46,5.67,1.39,2.83,2.25,3.69,3.98c.86,1.72,1.29,3.76,1.29,6.1s-.43,4.37-1.29,6.1c-.86,1.72-2.09,3.05-3.69,3.98-1.6.93-3.49,1.39-5.67,1.39s-4.07-.46-5.67-1.39ZM57.26,68.14c0-6.51-1.76-9.76-5.29-9.76s-5.29,3.25-5.29,9.76,1.76,9.76,5.29,9.76,5.29-3.25,5.29-9.76Z"/><path d="M65.5,59.08c-.2-.2-.48-.29-.84-.29h-1.38c-.1,0-.18-.03-.24-.09s-.09-.14-.09-.24v-1.14c0-.1.03-.18.09-.24s.14-.09.24-.09h2.2c.1,0,.18-.03.24-.09.06-.06.09-.14.09-.24v-2.11c0-1.17.25-2.22.76-3.16s1.21-1.68,2.1-2.22,1.89-.81,3-.81c.5,0,.95.05,1.33.15.38.1.7.22.95.36s.5.3.77.49c.16.12.29.2.38.25s.19.08.27.08c.11,0,.2-.04.27-.12s.14-.2.21-.37l.12-.28c.02-.07.06-.13.12-.18.05-.04.14-.07.25-.07h1.02c.1,0,.18.03.24.09s.09.14.09.24v5.77c0,.1-.03.18-.09.24s-.14.09-.24.09h-1.06c-.09,0-.17-.02-.23-.06s-.12-.13-.18-.26c-.05-.14-.11-.27-.15-.38s-.11-.25-.19-.42l-.07-.14c-.59-1.27-1.15-2.21-1.69-2.8s-1.09-.9-1.64-.9c-.51,0-.9.24-1.16.72s-.39,1.22-.39,2.21v3.58c0,.1.03.18.09.24s.14.09.24.09h4.47c.1,0,.18.03.24.09s.09.14.09.24v1.14c0,.1-.03.18-.09.24s-.14.09-.24.09h-4.47c-.1,0-.18.03-.24.09s-.09.14-.09.24v15.98c0,.62.04,1.11.12,1.49s.21.68.4.92c.18.23.44.43.78.6l.24.12c.16.08.24.2.24.37v.37c0,.1-.03.18-.09.24s-.14.09-.24.09h-7.73c-.1,0-.18-.03-.24-.09-.06-.06-.09-.14-.09-.24v-.37c0-.16.08-.28.24-.37l.24-.12c.34-.17.6-.37.78-.6.18-.23.32-.54.4-.92.08-.38.12-.87.12-1.49v-15.17c0-.37-.1-.65-.29-.84h.02Z"/><path class="cls-3" d="M92.19,77.83c-1.94-1.18-3.42-2.9-4.44-5.14s-1.53-4.93-1.53-8.05.51-5.81,1.52-8.05c1.01-2.24,2.48-3.96,4.39-5.14s4.2-1.77,6.86-1.77c.88,0,1.69.06,2.41.18.73.12,1.33.26,1.82.42s1,.34,1.54.56c.32.13.56.21.72.27s.3.08.41.08c.17,0,.3-.03.41-.1s.2-.18.28-.34l.24-.49c.04-.08.09-.14.16-.18s.15-.06.25-.06h1.1c.1,0,.18.03.24.09s.09.14.09.24v8.21c0,.1-.03.18-.09.24s-.14.09-.24.09h-1.06c-.1,0-.18-.02-.25-.07s-.12-.13-.16-.26c-.28-.9-.61-1.76-.98-2.56-.69-1.49-1.58-2.61-2.67-3.34s-2.4-1.1-3.91-1.1c-1.71,0-3.13.47-4.24,1.42-1.12.95-1.95,2.39-2.5,4.32s-.82,4.38-.82,7.36.28,5.42.83,7.37c.55,1.95,1.38,3.4,2.49,4.36s2.49,1.44,4.17,1.44c1.21,0,2.24-.24,3.08-.72s1.47-1.18,1.9-2.1.64-2.04.64-3.35v-1.87c0-.6-.04-1.09-.11-1.47s-.21-.69-.4-.93c-.19-.24-.45-.45-.79-.61l-.24-.12c-.16-.08-.24-.2-.24-.37v-.41c0-.1.03-.18.09-.24s.14-.09.24-.09h7.48c.1,0,.18.03.24.09.06.06.09.14.09.24v.41c0,.16-.08.28-.24.37l-.24.12c-.31.15-.54.34-.71.59s-.28.55-.34.93-.09.87-.09,1.49v9.19c0,.1-.03.18-.09.24s-.14.09-.24.09h-1.1c-.1,0-.18-.02-.25-.06s-.12-.1-.16-.18l-.41-.81c-.08-.16-.18-.27-.28-.34-.11-.07-.24-.1-.41-.1-.12,0-.28.03-.46.1s-.49.18-.9.34c-.65.26-1.26.49-1.81.68s-1.21.36-1.96.5-1.53.22-2.35.22c-2.7,0-5.02-.59-6.95-1.77l-.03-.06ZM111.96,79.2c-.06-.06-.09-.14-.09-.24v-.37c0-.16.08-.28.24-.37l.24-.12c.34-.17.6-.37.78-.6.18-.23.32-.54.4-.92.08-.38.12-.87.12-1.49v-13.91c0-.62-.04-1.11-.12-1.49s-.21-.68-.4-.92c-.18-.23-.44-.43-.78-.6l-.24-.12c-.16-.08-.24-.2-.24-.37v-.37c0-.1.03-.18.09-.24s.14-.09.24-.09h5.69c.1,0,.18.03.24.09.06.06.09.14.09.24v1.83c0,.14.03.2.08.2.02,0,.04,0,.07-.04s.06-.07.1-.13c.54-.81,1.08-1.4,1.63-1.78.55-.38,1.16-.57,1.82-.57.35,0,.68.05.98.16s.57.23.79.37c.22.14.46.3.71.49.18.13.31.22.39.26s.17.06.26.06c.12,0,.21-.04.28-.11.07-.08.14-.2.2-.37l.16-.45c.02-.07.06-.13.12-.18.05-.04.14-.07.25-.07h1.02c.1,0,.18.03.24.09.06.06.09.14.09.24v6.91c0,.1-.03.18-.09.24s-.14.09-.24.09h-.98c-.1,0-.18-.02-.25-.07-.07-.04-.12-.13-.16-.26-.07-.22-.13-.42-.2-.59-.06-.17-.13-.36-.21-.56l-.04-.11c-.5-1.32-1.05-2.31-1.65-2.96-.6-.65-1.23-.98-1.89-.98-.37,0-.74.1-1.12.3-.38.2-.74.49-1.09.86-.35.37-.66.81-.92,1.32-.08.16-.12.3-.12.41v13.18c0,.62.04,1.11.12,1.49s.21.68.4.92c.18.23.44.43.78.6l.24.12c.16.08.24.2.24.37v.37c0,.1-.03.18-.09.24s-.14.09-.24.09h-7.73c-.1,0-.18-.03-.24-.09h.03ZM133.55,78.22c-1.6-.93-2.83-2.25-3.69-3.98-.86-1.72-1.29-3.76-1.29-6.1s.43-4.37,1.29-6.1c.86-1.72,2.09-3.05,3.69-3.98s3.49-1.39,5.67-1.39,4.07.46,5.67,1.39c1.6.93,2.83,2.25,3.69,3.98s1.29,3.76,1.29,6.1-.43,4.37-1.29,6.1-2.09,3.05-3.69,3.98-3.49,1.39-5.67,1.39-4.07-.46-5.67-1.39ZM144.51,68.14c0-6.51-1.76-9.76-5.29-9.76s-5.29,3.25-5.29,9.76,1.76,9.76,5.29,9.76,5.29-3.25,5.29-9.76ZM157.38,79.21c-.07-.05-.12-.13-.16-.25l-5.98-18.34c-.15-.46-.31-.84-.48-1.15-.17-.3-.36-.56-.57-.76-.22-.2-.48-.38-.78-.53l-.24-.12c-.16-.08-.24-.2-.24-.37v-.37c0-.1.03-.18.09-.24s.14-.09.24-.09h8.3c.1,0,.18.03.24.09s.09.14.09.24v.37c0,.16-.08.28-.24.37l-.24.12c-.41.2-.71.42-.9.67-.19.25-.28.54-.28.87,0,.26.05.56.16.89l3.25,10.29c.02.06.04.1.07.13.02.02.06.04.1.04s.07-.01.1-.04c.02-.02.05-.07.07-.13l2.97-9.23c.05-.18.08-.32.08-.44,0-.14-.03-.29-.08-.45l-1.06-3.21c-.03-.08-.04-.15-.04-.22,0-.11.03-.19.1-.25s.16-.09.27-.09h4.27c.12,0,.22.02.28.07.07.05.12.13.16.25l4.31,13.58c.02.06.04.1.07.13.02.02.06.04.1.04s.07-.01.1-.04c.02-.02.05-.07.07-.13l3.29-10.29c.11-.33.16-.62.16-.88,0-.33-.09-.63-.28-.88-.19-.26-.49-.48-.9-.68l-.24-.12c-.16-.08-.24-.2-.24-.37v-.37c0-.1.03-.18.09-.24s.14-.09.24-.09h5.37c.1,0,.18.03.24.09.06.06.09.14.09.24v.37c0,.16-.08.28-.24.37l-.24.12c-.3.15-.56.33-.78.54s-.41.46-.57.77-.33.68-.48,1.14l-6.02,18.34c-.04.12-.1.21-.16.25-.07.05-.16.07-.28.07h-1.3c-.12,0-.22-.02-.28-.07-.07-.05-.12-.13-.16-.25l-4.51-13.87c-.02-.06-.04-.1-.07-.13-.02-.02-.06-.04-.1-.04s-.07.01-.1.04-.05.07-.07.13l-4.55,13.87c-.04.12-.09.21-.16.25-.07.05-.16.07-.28.07h-1.3c-.12,0-.22-.02-.28-.07h-.09ZM186.28,78.9c-.87-.47-1.54-1.14-2.01-2.02s-.7-1.91-.7-3.09v-13.87c0-.37-.1-.65-.29-.84s-.48-.29-.84-.29h-1.3c-.1,0-.18-.03-.24-.09-.06-.06-.09-.14-.09-.24v-1.14c0-.1.03-.18.09-.24s.14-.09.24-.09h2.11c.1,0,.18-.03.24-.09.06-.06.09-.14.09-.24v-4.55c0-.1.03-.18.09-.24s.14-.09.24-.09h4.15c.1,0,.18.03.24.09s.09.14.09.24v4.55c0,.1.03.18.09.24s.14.09.24.09h4.8c.1,0,.18.03.24.09s.09.14.09.24v1.14c0,.1-.03.18-.09.24s-.14.09-.24.09h-4.8c-.1,0-.18.03-.24.09s-.09.14-.09.24v14.68c0,.96.06,1.72.18,2.3.12.57.3.99.56,1.25.25.26.59.39,1.02.39.39,0,.72-.11,1-.34s.48-.56.62-1,.21-.97.21-1.59v-2.36c0-.1.03-.18.09-.24s.14-.09.24-.09h1.22c.1,0,.18.03.24.09s.09.14.09.24v2.36c0,1.58-.38,2.78-1.14,3.59s-1.87,1.21-3.34,1.21c-1.17,0-2.19-.24-3.06-.71h-.04ZM195.08,79.2c-.06-.06-.09-.14-.09-.24v-.37c0-.16.08-.28.24-.37l.24-.12c.34-.17.6-.37.78-.6.18-.23.32-.54.4-.92s.12-.87.12-1.49v-22.2c0-.62-.04-1.11-.12-1.49s-.21-.68-.4-.92c-.18-.23-.44-.43-.78-.6l-.24-.12c-.16-.08-.24-.2-.24-.37v-.37c0-.1.03-.18.09-.24s.14-.09.24-.09h5.94c.1,0,.18.03.24.09s.09.14.09.24v10.69c0,.14.03.2.08.2.02,0,.04,0,.07-.04s.06-.07.1-.13c.43-.65.97-1.2,1.61-1.66.64-.46,1.37-.82,2.17-1.06.8-.24,1.66-.37,2.56-.37,2.06,0,3.61.65,4.64,1.94,1.03,1.29,1.55,3.25,1.55,5.87v10.61c0,.62.04,1.11.12,1.49s.21.68.4.92c.18.23.44.43.78.6l.24.12c.16.08.24.2.24.37v.37c0,.1-.03.18-.09.24s-.14.09-.24.09h-7.73c-.1,0-.18-.03-.24-.09s-.09-.14-.09-.24v-.37c0-.16.08-.28.24-.37l.24-.12c.34-.17.6-.37.78-.6.18-.23.32-.54.4-.92s.12-.87.12-1.49v-11.26c0-1.09-.11-1.99-.33-2.69s-.56-1.24-1.02-1.58c-.46-.35-1.04-.52-1.74-.52-.6,0-1.2.12-1.78.36s-1.13.58-1.64,1.03c-.51.45-.95.97-1.33,1.58-.08.16-.12.3-.12.41v12.69c0,.62.04,1.11.12,1.49s.21.68.4.92c.18.23.44.43.78.6l.24.12c.16.08.24.2.24.37v.37c0,.1-.03.18-.09.24s-.14.09-.24.09h-7.73c-.1,0-.18-.03-.24-.09h.02Z"/><path d="M23.31,77.81c-.46-1.43-1.47-3.88-1.46-8.96,0-5.45,1.79-16,1.87-16.66.13-1.09.4-2.18-.19-2.43.62-.46.29-10.33-.62-13.53-.16-.55-.33-.91-.51-.98.65,0,.42-1.51.28-2.54-.15-1.14-.82-3.22-1.64-5.76-.55-1.68-1.16-3.56-1.73-5.5-.64-2.17-1.65-5.45-1.98-7.88-.3-2.25-.24-5.13-.24-6.38.43-.43.59-.62.57-1.3-.02-.7-.92-2.42-.92-2.66s0-.54.33-.83c.35-.32.33-.88.18-1.33-.18-.55-.87-.72-1.26-.81-.36-.09-2.16-.26-4.02-.26s-3.66.18-4.02.26c-.39.1-1.07.26-1.26.81-.16.46-.17,1.01.18,1.33.32.29.33.58.33.83s-.9,1.96-.92,2.66c-.02.67.15.87.58,1.3,0,1.25.07,4.12-.24,6.38-.33,2.43-1.34,5.71-1.99,7.88-.58,1.94-1.19,3.82-1.73,5.5-.82,2.53-1.49,4.61-1.64,5.76-.14,1.04-.36,2.54.28,2.54-.19.08-.36.43-.51.98-.91,3.2-1.24,13.06-.62,13.53-.59.25-.33,1.34-.2,2.43.08.65,1.86,11.2,1.87,16.66,0,5.08-1.01,7.53-1.46,8.96-.65,2.03-1.33,7.22,1.01,8.55,1.41.8,6.06,1.48,10.34,1.48s8.93-.68,10.34-1.48c2.34-1.33,1.66-6.51,1.01-8.55h-.01Z"/><path class="cls-1" d="M23.31,77.81c-.46-1.43-1.47-3.88-1.46-8.96,0-.51.02-1.07.05-1.67h0s-.33,2.72-.75,3.77c-.29.71-.75,1.21-.75,1.21l-.17.2-14.1,13.13s-.58.39-.68.46c-.4.25-.64.35-1.22.53-1.12.35-2,.14-2,.14,1.86.68,5.95,1.21,9.74,1.21,4.28,0,8.93-.68,10.34-1.48,2.34-1.33,1.66-6.51,1.01-8.55h-.01Z"/><path class="cls-2" d="M6.58,79.51c-.33-3.26.07-4.66,1.74-6.17,2.16-1.96,5.42-1.55,7.35-.98,1.21.35,2.11.69,3.29.56.86-.1,1.43-.75,1.43-.75-.18.31-.77.92-.91,1.06l-13.01,12.04c-.44.38-1.03.69-1.03.69.87-.7,1.24-1.64,1.26-3.04,0-.97-.03-2.55-.12-3.41Z"/><path d="M1520.97,28.53l-2.54,7.71h-3.29l8.35-24.54h3.81l8.38,24.54h-3.39l-2.63-7.71h-8.7.01ZM1529.03,26.05l-2.43-7.06c-.53-1.61-.9-3.07-1.26-4.48h-.09c-.35,1.43-.73,2.93-1.22,4.43l-2.42,7.1h7.42Z"/><path d="M1539.07,10.39h3.19v25.85h-3.19V10.39Z"/><path d="M1547.66,10.39h3.19v25.85h-3.19V10.39Z"/><path d="M1567.25,11.7v10.28h11.86v-10.28h3.19v24.54h-3.19v-11.51h-11.86v11.51h-3.19V11.7h3.19Z"/><path d="M1597.47,36.24l-.28-2.22h-.1c-.97,1.37-2.87,2.62-5.39,2.62-3.56,0-5.38-2.52-5.38-5.05,0-4.26,3.78-6.61,10.58-6.56v-.37c0-1.43-.4-4.08-4.01-4.06-1.64,0-3.35.49-4.59,1.31l-.73-2.13c1.46-.94,3.59-1.54,5.81-1.54,5.38,0,6.69,3.68,6.69,7.21v6.59c0,1.5.07,3,.27,4.21h-2.89.02ZM1596.98,27.25c-3.46-.07-7.43.55-7.43,3.95,0,2.1,1.38,3.07,2.99,3.07,2.32,0,3.78-1.46,4.29-2.95.11-.34.15-.7.15-1.01v-3.06Z"/><path d="M1605.26,23.39c0-1.84-.06-3.3-.15-4.76h2.83l.18,2.9h.09c.87-1.65,2.91-3.3,5.82-3.3,2.42,0,6.21,1.46,6.21,7.5v10.5h-3.19v-10.15c0-2.85-1.07-5.23-4.07-5.23-2.1,0-3.74,1.49-4.31,3.29-.13.39-.22.96-.22,1.49v10.61h-3.19s0-12.85,0-12.85Z"/><path d="M1640.66,10.39v21.31c0,1.57.06,3.33.15,4.54h-2.85l-.16-3.04h-.08c-.98,1.97-3.1,3.45-5.97,3.45-4.27,0-7.56-3.61-7.56-8.95-.03-5.89,3.62-9.46,7.91-9.46,2.7,0,4.52,1.27,5.31,2.67h.07v-10.51h3.18,0ZM1637.48,25.8c0-.42-.04-.95-.13-1.37-.5-2.02-2.23-3.68-4.64-3.68-3.32,0-5.3,2.91-5.3,6.78,0,3.58,1.78,6.55,5.23,6.55,2.14,0,4.09-1.45,4.68-3.84.11-.42.16-.87.16-1.37v-3.07Z"/><path d="M1674.52,25.47c-.19-3.41-.41-7.55-.39-10.58h-.1c-.84,2.85-1.86,5.94-3.09,9.3l-4.33,11.9h-2.39l-4-11.69c-1.17-3.47-2.12-6.61-2.81-9.52h-.09c-.09,3.06-.25,7.14-.48,10.83l-.65,10.53h-3.01l1.71-24.54h4.05l4.18,11.88c1.01,3,1.83,5.71,2.47,8.27h.1c.64-2.49,1.5-5.19,2.6-8.26l4.38-11.88h4.05l1.52,24.54h-3.12l-.59-10.78h-.01Z"/><path d="M1685,28.02c.06,4.33,2.81,6.11,6.03,6.11,2.29,0,3.69-.41,4.88-.9l.56,2.27c-1.12.51-3.08,1.12-5.88,1.12-5.41,0-8.66-3.6-8.66-8.89s3.14-9.5,8.28-9.5c5.74,0,7.25,5.04,7.25,8.28,0,.67-.04,1.15-.11,1.5h-12.35ZM1694.37,25.71c.03-2.02-.83-5.18-4.42-5.18-3.27,0-4.66,2.96-4.92,5.18h9.34Z"/><path d="M1703.24,28.02c.06,4.33,2.81,6.11,6.03,6.11,2.29,0,3.69-.41,4.88-.9l.56,2.27c-1.12.51-3.08,1.12-5.88,1.12-5.41,0-8.66-3.6-8.66-8.89s3.14-9.5,8.28-9.5c5.74,0,7.25,5.04,7.25,8.28,0,.67-.04,1.15-.11,1.5h-12.35ZM1712.61,25.71c.03-2.02-.83-5.18-4.42-5.18-3.27,0-4.66,2.96-4.92,5.18h9.34Z"/><path d="M1723.53,13.57v5.07h4.6v2.43h-4.6v9.49c0,2.19.63,3.43,2.42,3.43.83,0,1.43-.1,1.86-.23l.15,2.43c-.62.24-1.62.44-2.86.44-1.47,0-2.69-.49-3.46-1.36-.88-.97-1.24-2.52-1.24-4.59v-9.61h-2.73v-2.43h2.73v-4.24l3.14-.83h-.01Z"/><path d="M1735.31,13.66c0,1.09-.76,1.99-2.04,1.99-1.16,0-1.94-.9-1.93-1.99,0-1.1.82-1.99,1.99-1.99s1.97.87,1.98,1.99h0ZM1731.74,36.24v-17.61h3.19v17.61h-3.19Z"/><path d="M1740.25,23.39c0-1.84-.06-3.3-.15-4.76h2.83l.18,2.9h.09c.87-1.65,2.91-3.3,5.82-3.3,2.42,0,6.21,1.46,6.21,7.5v10.5h-3.19v-10.15c0-2.85-1.07-5.23-4.07-5.23-2.1,0-3.74,1.49-4.31,3.29-.13.39-.22.96-.22,1.49v10.61h-3.19s0-12.85,0-12.85Z"/><path d="M1775.66,18.63c-.09,1.24-.15,2.67-.15,4.82v10.22c0,4.08-.83,6.52-2.51,8.06-1.73,1.59-4.19,2.11-6.41,2.11s-4.45-.5-5.88-1.45l.8-2.46c1.17.73,2.99,1.41,5.18,1.41,3.27,0,5.67-1.71,5.67-6.17v-1.96h-.07c-.96,1.65-2.88,2.97-5.6,2.97-4.39,0-7.51-3.73-7.51-8.61,0-5.97,3.88-9.33,7.95-9.33,3.06,0,4.71,1.57,5.49,3.04h.07l.13-2.64h2.84ZM1772.32,25.56c0-.52-.05-1-.18-1.43-.59-1.87-2.14-3.41-4.5-3.41-3.05,0-5.24,2.58-5.24,6.68,0,3.44,1.78,6.34,5.21,6.34,1.99,0,3.77-1.26,4.45-3.3.17-.52.25-1.14.25-1.7v-3.17h.01Z"/><path d="M1780.36,32.98c.96.6,2.65,1.25,4.24,1.25,2.34,0,3.42-1.15,3.42-2.62s-.93-2.35-3.27-3.22c-3.18-1.15-4.69-2.88-4.68-4.99,0-2.84,2.3-5.16,6.09-5.16,1.79,0,3.33.48,4.31,1.08l-.8,2.33c-.68-.43-1.97-1.04-3.61-1.04-1.89,0-2.92,1.09-2.92,2.42,0,1.46,1.04,2.11,3.34,3,3.04,1.13,4.61,2.66,4.62,5.29,0,3.12-2.42,5.31-6.58,5.31-1.93,0-3.71-.5-4.95-1.23l.78-2.42h.01Z"/><path d="M1515.86,78.53v-1.95l2.51-2.44c6.04-5.76,8.79-8.83,8.81-12.4,0-2.4-1.14-4.63-4.66-4.63-2.16,0-3.93,1.11-5.03,2l-1.02-2.24c1.62-1.37,3.97-2.41,6.69-2.41,5.09,0,7.23,3.5,7.23,6.87,0,4.4-3.17,7.93-8.15,12.71l-1.87,1.77v.07h10.6v2.65h-15.11,0Z"/><path d="M1550.29,66.45c0,8.03-3,12.47-8.23,12.47-4.62,0-7.76-4.33-7.84-12.15,0-7.95,3.43-12.32,8.24-12.32s7.83,4.46,7.83,11.99h0ZM1537.44,66.79c0,6.17,1.89,9.65,4.8,9.65,3.27,0,4.83-3.82,4.83-9.84s-1.48-9.65-4.8-9.65c-2.79,0-4.83,3.42-4.82,9.84h-.01Z"/><path d="M1553.21,78.53v-1.95l2.51-2.44c6.04-5.76,8.79-8.83,8.81-12.4,0-2.4-1.14-4.63-4.66-4.63-2.16,0-3.93,1.11-5.03,2l-1.02-2.24c1.62-1.37,3.97-2.41,6.69-2.41,5.09,0,7.23,3.5,7.23,6.87,0,4.4-3.17,7.93-8.15,12.71l-1.87,1.77v.07h10.6v2.65h-15.11,0Z"/><path d="M1585.41,57.1c-.68,0-1.48.02-2.42.17-5.03.8-7.67,4.48-8.2,8.41h.09c1.13-1.52,3.09-2.76,5.71-2.76,4.21,0,7.16,3.04,7.16,7.65,0,4.34-2.96,8.35-7.89,8.35s-8.35-3.94-8.35-10.07c0-4.65,1.66-8.34,4-10.67,1.95-1.94,4.58-3.13,7.57-3.51.94-.15,1.73-.18,2.31-.18,0,0,.02,2.61.02,2.61ZM1584.5,70.78c0-3.39-1.94-5.42-4.87-5.42-1.94,0-3.74,1.18-4.61,2.9-.19.37-.34.83-.34,1.4.05,3.9,1.84,6.81,5.21,6.81,2.75,0,4.61-2.3,4.61-5.69Z"/></g></g></svg>